<?xml version="1.0" encoding="utf-8" standalone="no"?>
<!DOCTYPE svg PUBLIC "-//W3C//DTD SVG 1.1//EN"
  "http://www.w3.org/Graphics/SVG/1.1/DTD/svg11.dtd">
<svg xmlns:xlink="http://www.w3.org/1999/xlink" width="432pt" height="216pt" viewBox="0 0 432 216" xmlns="http://www.w3.org/2000/svg" version="1.1">
 <metadata>
  <rdf:RDF xmlns:dc="http://purl.org/dc/elements/1.1/" xmlns:cc="http://creativecommons.org/ns#" xmlns:rdf="http://www.w3.org/1999/02/22-rdf-syntax-ns#">
   <cc:Work>
    <dc:type rdf:resource="http://purl.org/dc/dcmitype/StillImage"/>
    <dc:date>2025-01-13T20:42:19.698154</dc:date>
    <dc:format>image/svg+xml</dc:format>
    <dc:creator>
     <cc:Agent>
      <dc:title>Matplotlib v3.9.2, https://matplotlib.org/</dc:title>
     </cc:Agent>
    </dc:creator>
   </cc:Work>
  </rdf:RDF>
 </metadata>
 <defs>
  <style type="text/css">*{stroke-linejoin: round; stroke-linecap: butt}</style>
 </defs>
 <g id="figure_1">
  <g id="patch_1">
   <path d="M 0 216 
L 432 216 
L 432 0 
L 0 0 
L 0 216 
z
" style="fill: none"/>
  </g>
  <g id="axes_1">
   <g id="patch_2">
    <path d="M 42.8375 169.559 
L 410.505 169.559 
L 410.505 27.0932 
L 42.8375 27.0932 
L 42.8375 169.559 
z
" style="fill: none"/>
   </g>
   <g id="matplotlib.axis_1">
    <g id="xtick_1">
     <g id="line2d_1">
      <path d="M 50.19085 169.559 
L 50.19085 27.0932 
" clip-path="url(#p155d667805)" style="fill: none; stroke-dasharray: 2.96,1.28; stroke-dashoffset: 0; stroke: #b0b0b0; stroke-opacity: 0.5; stroke-width: 0.8"/>
     </g>
     <g id="line2d_2">
      <defs>
       <path id="m14f48476c4" d="M 0 0 
L 0 3.5 
" style="stroke: #000000; stroke-width: 0.8"/>
      </defs>
      <g>
       <use xlink:href="#m14f48476c4" x="50.19085" y="169.559" style="stroke: #000000; stroke-width: 0.8"/>
      </g>
     </g>
     <g id="text_1">
      <!-- 2000 -->
      <g transform="translate(34.617707 195.254019) rotate(-45) scale(0.08 -0.08)">
       <defs>
        <path id="DejaVuSerif-32" d="M 819 3553 
L 469 3553 
L 469 4384 
Q 803 4563 1142 4656 
Q 1481 4750 1806 4750 
Q 2534 4750 2956 4397 
Q 3378 4044 3378 3438 
Q 3378 2753 2422 1800 
Q 2347 1728 2309 1691 
L 1131 513 
L 3078 513 
L 3078 1088 
L 3444 1088 
L 3444 0 
L 434 0 
L 434 341 
L 1850 1753 
Q 2319 2222 2519 2614 
Q 2719 3006 2719 3438 
Q 2719 3909 2473 4175 
Q 2228 4441 1797 4441 
Q 1350 4441 1106 4219 
Q 863 3997 819 3553 
z
" transform="scale(0.015625)"/>
        <path id="DejaVuSerif-30" d="M 2034 219 
Q 2513 219 2750 744 
Q 2988 1269 2988 2328 
Q 2988 3391 2750 3916 
Q 2513 4441 2034 4441 
Q 1556 4441 1318 3916 
Q 1081 3391 1081 2328 
Q 1081 1269 1318 744 
Q 1556 219 2034 219 
z
M 2034 -91 
Q 1275 -91 848 546 
Q 422 1184 422 2328 
Q 422 3475 848 4112 
Q 1275 4750 2034 4750 
Q 2797 4750 3222 4112 
Q 3647 3475 3647 2328 
Q 3647 1184 3222 546 
Q 2797 -91 2034 -91 
z
" transform="scale(0.015625)"/>
       </defs>
       <use xlink:href="#DejaVuSerif-32"/>
       <use xlink:href="#DejaVuSerif-30" x="63.623047"/>
       <use xlink:href="#DejaVuSerif-30" x="127.246094"/>
       <use xlink:href="#DejaVuSerif-30" x="190.869141"/>
      </g>
     </g>
    </g>
    <g id="xtick_2">
     <g id="line2d_3">
      <path d="M 64.89755 169.559 
L 64.89755 27.0932 
" clip-path="url(#p155d667805)" style="fill: none; stroke-dasharray: 2.96,1.28; stroke-dashoffset: 0; stroke: #b0b0b0; stroke-opacity: 0.5; stroke-width: 0.8"/>
     </g>
     <g id="line2d_4">
      <g>
       <use xlink:href="#m14f48476c4" x="64.89755" y="169.559" style="stroke: #000000; stroke-width: 0.8"/>
      </g>
     </g>
     <g id="text_2">
      <!-- 2001 -->
      <g transform="translate(49.324407 195.254019) rotate(-45) scale(0.08 -0.08)">
       <defs>
        <path id="DejaVuSerif-31" d="M 909 0 
L 909 331 
L 1722 331 
L 1722 4213 
L 781 3603 
L 781 4013 
L 1919 4750 
L 2350 4750 
L 2350 331 
L 3163 331 
L 3163 0 
L 909 0 
z
" transform="scale(0.015625)"/>
       </defs>
       <use xlink:href="#DejaVuSerif-32"/>
       <use xlink:href="#DejaVuSerif-30" x="63.623047"/>
       <use xlink:href="#DejaVuSerif-30" x="127.246094"/>
       <use xlink:href="#DejaVuSerif-31" x="190.869141"/>
      </g>
     </g>
    </g>
    <g id="xtick_3">
     <g id="line2d_5">
      <path d="M 79.60425 169.559 
L 79.60425 27.0932 
" clip-path="url(#p155d667805)" style="fill: none; stroke-dasharray: 2.96,1.28; stroke-dashoffset: 0; stroke: #b0b0b0; stroke-opacity: 0.5; stroke-width: 0.8"/>
     </g>
     <g id="line2d_6">
      <g>
       <use xlink:href="#m14f48476c4" x="79.60425" y="169.559" style="stroke: #000000; stroke-width: 0.8"/>
      </g>
     </g>
     <g id="text_3">
      <!-- 2002 -->
      <g transform="translate(64.031107 195.254019) rotate(-45) scale(0.08 -0.08)">
       <use xlink:href="#DejaVuSerif-32"/>
       <use xlink:href="#DejaVuSerif-30" x="63.623047"/>
       <use xlink:href="#DejaVuSerif-30" x="127.246094"/>
       <use xlink:href="#DejaVuSerif-32" x="190.869141"/>
      </g>
     </g>
    </g>
    <g id="xtick_4">
     <g id="line2d_7">
      <path d="M 94.31095 169.559 
L 94.31095 27.0932 
" clip-path="url(#p155d667805)" style="fill: none; stroke-dasharray: 2.96,1.28; stroke-dashoffset: 0; stroke: #b0b0b0; stroke-opacity: 0.5; stroke-width: 0.8"/>
     </g>
     <g id="line2d_8">
      <g>
       <use xlink:href="#m14f48476c4" x="94.31095" y="169.559" style="stroke: #000000; stroke-width: 0.8"/>
      </g>
     </g>
     <g id="text_4">
      <!-- 2003 -->
      <g transform="translate(78.737807 195.254019) rotate(-45) scale(0.08 -0.08)">
       <defs>
        <path id="DejaVuSerif-33" d="M 622 4469 
Q 988 4606 1323 4678 
Q 1659 4750 1953 4750 
Q 2638 4750 3022 4454 
Q 3406 4159 3406 3634 
Q 3406 3213 3140 2930 
Q 2875 2647 2388 2547 
Q 2963 2466 3280 2130 
Q 3597 1794 3597 1259 
Q 3597 606 3158 257 
Q 2719 -91 1894 -91 
Q 1528 -91 1179 -12 
Q 831 66 488 225 
L 488 1131 
L 838 1131 
Q 869 681 1141 450 
Q 1413 219 1906 219 
Q 2384 219 2661 495 
Q 2938 772 2938 1253 
Q 2938 1803 2653 2086 
Q 2369 2369 1819 2369 
L 1522 2369 
L 1522 2688 
L 1678 2688 
Q 2225 2688 2498 2914 
Q 2772 3141 2772 3597 
Q 2772 4006 2547 4223 
Q 2322 4441 1900 4441 
Q 1478 4441 1245 4241 
Q 1013 4041 972 3647 
L 622 3647 
L 622 4469 
z
" transform="scale(0.015625)"/>
       </defs>
       <use xlink:href="#DejaVuSerif-32"/>
       <use xlink:href="#DejaVuSerif-30" x="63.623047"/>
       <use xlink:href="#DejaVuSerif-30" x="127.246094"/>
       <use xlink:href="#DejaVuSerif-33" x="190.869141"/>
      </g>
     </g>
    </g>
    <g id="xtick_5">
     <g id="line2d_9">
      <path d="M 109.01765 169.559 
L 109.01765 27.0932 
" clip-path="url(#p155d667805)" style="fill: none; stroke-dasharray: 2.96,1.28; stroke-dashoffset: 0; stroke: #b0b0b0; stroke-opacity: 0.5; stroke-width: 0.8"/>
     </g>
     <g id="line2d_10">
      <g>
       <use xlink:href="#m14f48476c4" x="109.01765" y="169.559" style="stroke: #000000; stroke-width: 0.8"/>
      </g>
     </g>
     <g id="text_5">
      <!-- 2004 -->
      <g transform="translate(93.444507 195.254019) rotate(-45) scale(0.08 -0.08)">
       <defs>
        <path id="DejaVuSerif-34" d="M 2234 1581 
L 2234 4063 
L 641 1581 
L 2234 1581 
z
M 3609 0 
L 1484 0 
L 1484 331 
L 2234 331 
L 2234 1247 
L 197 1247 
L 197 1588 
L 2241 4750 
L 2859 4750 
L 2859 1581 
L 3750 1581 
L 3750 1247 
L 2859 1247 
L 2859 331 
L 3609 331 
L 3609 0 
z
" transform="scale(0.015625)"/>
       </defs>
       <use xlink:href="#DejaVuSerif-32"/>
       <use xlink:href="#DejaVuSerif-30" x="63.623047"/>
       <use xlink:href="#DejaVuSerif-30" x="127.246094"/>
       <use xlink:href="#DejaVuSerif-34" x="190.869141"/>
      </g>
     </g>
    </g>
    <g id="xtick_6">
     <g id="line2d_11">
      <path d="M 123.72435 169.559 
L 123.72435 27.0932 
" clip-path="url(#p155d667805)" style="fill: none; stroke-dasharray: 2.96,1.28; stroke-dashoffset: 0; stroke: #b0b0b0; stroke-opacity: 0.5; stroke-width: 0.8"/>
     </g>
     <g id="line2d_12">
      <g>
       <use xlink:href="#m14f48476c4" x="123.72435" y="169.559" style="stroke: #000000; stroke-width: 0.8"/>
      </g>
     </g>
     <g id="text_6">
      <!-- 2005 -->
      <g transform="translate(108.151207 195.254019) rotate(-45) scale(0.08 -0.08)">
       <defs>
        <path id="DejaVuSerif-35" d="M 3219 4666 
L 3219 4153 
L 1081 4153 
L 1081 2816 
Q 1244 2928 1461 2984 
Q 1678 3041 1947 3041 
Q 2703 3041 3140 2622 
Q 3578 2203 3578 1478 
Q 3578 738 3136 323 
Q 2694 -91 1894 -91 
Q 1572 -91 1234 -12 
Q 897 66 544 225 
L 544 1131 
L 897 1131 
Q 925 688 1179 453 
Q 1434 219 1894 219 
Q 2388 219 2653 544 
Q 2919 869 2919 1478 
Q 2919 2084 2655 2407 
Q 2391 2731 1894 2731 
Q 1613 2731 1398 2631 
Q 1184 2531 1019 2322 
L 750 2322 
L 750 4666 
L 3219 4666 
z
" transform="scale(0.015625)"/>
       </defs>
       <use xlink:href="#DejaVuSerif-32"/>
       <use xlink:href="#DejaVuSerif-30" x="63.623047"/>
       <use xlink:href="#DejaVuSerif-30" x="127.246094"/>
       <use xlink:href="#DejaVuSerif-35" x="190.869141"/>
      </g>
     </g>
    </g>
    <g id="xtick_7">
     <g id="line2d_13">
      <path d="M 138.43105 169.559 
L 138.43105 27.0932 
" clip-path="url(#p155d667805)" style="fill: none; stroke-dasharray: 2.96,1.28; stroke-dashoffset: 0; stroke: #b0b0b0; stroke-opacity: 0.5; stroke-width: 0.8"/>
     </g>
     <g id="line2d_14">
      <g>
       <use xlink:href="#m14f48476c4" x="138.43105" y="169.559" style="stroke: #000000; stroke-width: 0.8"/>
      </g>
     </g>
     <g id="text_7">
      <!-- 2006 -->
      <g transform="translate(122.857907 195.254019) rotate(-45) scale(0.08 -0.08)">
       <defs>
        <path id="DejaVuSerif-36" d="M 2094 219 
Q 2534 219 2771 542 
Q 3009 866 3009 1472 
Q 3009 2078 2771 2401 
Q 2534 2725 2094 2725 
Q 1647 2725 1412 2412 
Q 1178 2100 1178 1509 
Q 1178 888 1415 553 
Q 1653 219 2094 219 
z
M 1075 2569 
Q 1288 2803 1556 2918 
Q 1825 3034 2163 3034 
Q 2859 3034 3264 2615 
Q 3669 2197 3669 1472 
Q 3669 763 3233 336 
Q 2797 -91 2069 -91 
Q 1278 -91 853 498 
Q 428 1088 428 2181 
Q 428 3406 931 4078 
Q 1434 4750 2350 4750 
Q 2597 4750 2869 4703 
Q 3141 4656 3425 4563 
L 3425 3794 
L 3072 3794 
Q 3034 4109 2831 4275 
Q 2628 4441 2284 4441 
Q 1678 4441 1381 3981 
Q 1084 3522 1075 2569 
z
" transform="scale(0.015625)"/>
       </defs>
       <use xlink:href="#DejaVuSerif-32"/>
       <use xlink:href="#DejaVuSerif-30" x="63.623047"/>
       <use xlink:href="#DejaVuSerif-30" x="127.246094"/>
       <use xlink:href="#DejaVuSerif-36" x="190.869141"/>
      </g>
     </g>
    </g>
    <g id="xtick_8">
     <g id="line2d_15">
      <path d="M 153.13775 169.559 
L 153.13775 27.0932 
" clip-path="url(#p155d667805)" style="fill: none; stroke-dasharray: 2.96,1.28; stroke-dashoffset: 0; stroke: #b0b0b0; stroke-opacity: 0.5; stroke-width: 0.8"/>
     </g>
     <g id="line2d_16">
      <g>
       <use xlink:href="#m14f48476c4" x="153.13775" y="169.559" style="stroke: #000000; stroke-width: 0.8"/>
      </g>
     </g>
     <g id="text_8">
      <!-- 2007 -->
      <g transform="translate(137.564607 195.254019) rotate(-45) scale(0.08 -0.08)">
       <defs>
        <path id="DejaVuSerif-37" d="M 3609 4347 
L 1784 0 
L 1319 0 
L 3059 4153 
L 903 4153 
L 903 3578 
L 538 3578 
L 538 4666 
L 3609 4666 
L 3609 4347 
z
" transform="scale(0.015625)"/>
       </defs>
       <use xlink:href="#DejaVuSerif-32"/>
       <use xlink:href="#DejaVuSerif-30" x="63.623047"/>
       <use xlink:href="#DejaVuSerif-30" x="127.246094"/>
       <use xlink:href="#DejaVuSerif-37" x="190.869141"/>
      </g>
     </g>
    </g>
    <g id="xtick_9">
     <g id="line2d_17">
      <path d="M 167.84445 169.559 
L 167.84445 27.0932 
" clip-path="url(#p155d667805)" style="fill: none; stroke-dasharray: 2.96,1.28; stroke-dashoffset: 0; stroke: #b0b0b0; stroke-opacity: 0.5; stroke-width: 0.8"/>
     </g>
     <g id="line2d_18">
      <g>
       <use xlink:href="#m14f48476c4" x="167.84445" y="169.559" style="stroke: #000000; stroke-width: 0.8"/>
      </g>
     </g>
     <g id="text_9">
      <!-- 2008 -->
      <g transform="translate(152.271307 195.254019) rotate(-45) scale(0.08 -0.08)">
       <defs>
        <path id="DejaVuSerif-38" d="M 2981 1275 
Q 2981 1775 2732 2051 
Q 2484 2328 2034 2328 
Q 1584 2328 1336 2051 
Q 1088 1775 1088 1275 
Q 1088 772 1336 495 
Q 1584 219 2034 219 
Q 2484 219 2732 495 
Q 2981 772 2981 1275 
z
M 2853 3541 
Q 2853 3966 2637 4203 
Q 2422 4441 2034 4441 
Q 1650 4441 1433 4203 
Q 1216 3966 1216 3541 
Q 1216 3113 1433 2875 
Q 1650 2638 2034 2638 
Q 2422 2638 2637 2875 
Q 2853 3113 2853 3541 
z
M 2516 2484 
Q 3047 2413 3344 2092 
Q 3641 1772 3641 1275 
Q 3641 619 3225 264 
Q 2809 -91 2034 -91 
Q 1263 -91 845 264 
Q 428 619 428 1275 
Q 428 1772 725 2092 
Q 1022 2413 1556 2484 
Q 1084 2569 832 2842 
Q 581 3116 581 3541 
Q 581 4103 968 4426 
Q 1356 4750 2034 4750 
Q 2713 4750 3100 4426 
Q 3488 4103 3488 3541 
Q 3488 3116 3236 2842 
Q 2984 2569 2516 2484 
z
" transform="scale(0.015625)"/>
       </defs>
       <use xlink:href="#DejaVuSerif-32"/>
       <use xlink:href="#DejaVuSerif-30" x="63.623047"/>
       <use xlink:href="#DejaVuSerif-30" x="127.246094"/>
       <use xlink:href="#DejaVuSerif-38" x="190.869141"/>
      </g>
     </g>
    </g>
    <g id="xtick_10">
     <g id="line2d_19">
      <path d="M 182.55115 169.559 
L 182.55115 27.0932 
" clip-path="url(#p155d667805)" style="fill: none; stroke-dasharray: 2.96,1.28; stroke-dashoffset: 0; stroke: #b0b0b0; stroke-opacity: 0.5; stroke-width: 0.8"/>
     </g>
     <g id="line2d_20">
      <g>
       <use xlink:href="#m14f48476c4" x="182.55115" y="169.559" style="stroke: #000000; stroke-width: 0.8"/>
      </g>
     </g>
     <g id="text_10">
      <!-- 2009 -->
      <g transform="translate(166.978007 195.254019) rotate(-45) scale(0.08 -0.08)">
       <defs>
        <path id="DejaVuSerif-39" d="M 2994 2091 
Q 2784 1856 2512 1740 
Q 2241 1625 1900 1625 
Q 1206 1625 804 2044 
Q 403 2463 403 3188 
Q 403 3897 839 4323 
Q 1275 4750 2003 4750 
Q 2794 4750 3217 4161 
Q 3641 3572 3641 2478 
Q 3641 1253 3137 581 
Q 2634 -91 1722 -91 
Q 1475 -91 1203 -44 
Q 931 3 647 97 
L 647 872 
L 997 872 
Q 1038 556 1241 387 
Q 1444 219 1784 219 
Q 2391 219 2687 676 
Q 2984 1134 2994 2091 
z
M 1978 4441 
Q 1534 4441 1298 4117 
Q 1063 3794 1063 3188 
Q 1063 2581 1298 2256 
Q 1534 1931 1978 1931 
Q 2422 1931 2658 2245 
Q 2894 2559 2894 3150 
Q 2894 3772 2656 4106 
Q 2419 4441 1978 4441 
z
" transform="scale(0.015625)"/>
       </defs>
       <use xlink:href="#DejaVuSerif-32"/>
       <use xlink:href="#DejaVuSerif-30" x="63.623047"/>
       <use xlink:href="#DejaVuSerif-30" x="127.246094"/>
       <use xlink:href="#DejaVuSerif-39" x="190.869141"/>
      </g>
     </g>
    </g>
    <g id="xtick_11">
     <g id="line2d_21">
      <path d="M 197.25785 169.559 
L 197.25785 27.0932 
" clip-path="url(#p155d667805)" style="fill: none; stroke-dasharray: 2.96,1.28; stroke-dashoffset: 0; stroke: #b0b0b0; stroke-opacity: 0.5; stroke-width: 0.8"/>
     </g>
     <g id="line2d_22">
      <g>
       <use xlink:href="#m14f48476c4" x="197.25785" y="169.559" style="stroke: #000000; stroke-width: 0.8"/>
      </g>
     </g>
     <g id="text_11">
      <!-- 2010 -->
      <g transform="translate(181.684707 195.254019) rotate(-45) scale(0.08 -0.08)">
       <use xlink:href="#DejaVuSerif-32"/>
       <use xlink:href="#DejaVuSerif-30" x="63.623047"/>
       <use xlink:href="#DejaVuSerif-31" x="127.246094"/>
       <use xlink:href="#DejaVuSerif-30" x="190.869141"/>
      </g>
     </g>
    </g>
    <g id="xtick_12">
     <g id="line2d_23">
      <path d="M 211.96455 169.559 
L 211.96455 27.0932 
" clip-path="url(#p155d667805)" style="fill: none; stroke-dasharray: 2.96,1.28; stroke-dashoffset: 0; stroke: #b0b0b0; stroke-opacity: 0.5; stroke-width: 0.8"/>
     </g>
     <g id="line2d_24">
      <g>
       <use xlink:href="#m14f48476c4" x="211.96455" y="169.559" style="stroke: #000000; stroke-width: 0.8"/>
      </g>
     </g>
     <g id="text_12">
      <!-- 2011 -->
      <g transform="translate(196.391407 195.254019) rotate(-45) scale(0.08 -0.08)">
       <use xlink:href="#DejaVuSerif-32"/>
       <use xlink:href="#DejaVuSerif-30" x="63.623047"/>
       <use xlink:href="#DejaVuSerif-31" x="127.246094"/>
       <use xlink:href="#DejaVuSerif-31" x="190.869141"/>
      </g>
     </g>
    </g>
    <g id="xtick_13">
     <g id="line2d_25">
      <path d="M 226.67125 169.559 
L 226.67125 27.0932 
" clip-path="url(#p155d667805)" style="fill: none; stroke-dasharray: 2.96,1.28; stroke-dashoffset: 0; stroke: #b0b0b0; stroke-opacity: 0.5; stroke-width: 0.8"/>
     </g>
     <g id="line2d_26">
      <g>
       <use xlink:href="#m14f48476c4" x="226.67125" y="169.559" style="stroke: #000000; stroke-width: 0.8"/>
      </g>
     </g>
     <g id="text_13">
      <!-- 2012 -->
      <g transform="translate(211.098107 195.254019) rotate(-45) scale(0.08 -0.08)">
       <use xlink:href="#DejaVuSerif-32"/>
       <use xlink:href="#DejaVuSerif-30" x="63.623047"/>
       <use xlink:href="#DejaVuSerif-31" x="127.246094"/>
       <use xlink:href="#DejaVuSerif-32" x="190.869141"/>
      </g>
     </g>
    </g>
    <g id="xtick_14">
     <g id="line2d_27">
      <path d="M 241.37795 169.559 
L 241.37795 27.0932 
" clip-path="url(#p155d667805)" style="fill: none; stroke-dasharray: 2.96,1.28; stroke-dashoffset: 0; stroke: #b0b0b0; stroke-opacity: 0.5; stroke-width: 0.8"/>
     </g>
     <g id="line2d_28">
      <g>
       <use xlink:href="#m14f48476c4" x="241.37795" y="169.559" style="stroke: #000000; stroke-width: 0.8"/>
      </g>
     </g>
     <g id="text_14">
      <!-- 2013 -->
      <g transform="translate(225.804807 195.254019) rotate(-45) scale(0.08 -0.08)">
       <use xlink:href="#DejaVuSerif-32"/>
       <use xlink:href="#DejaVuSerif-30" x="63.623047"/>
       <use xlink:href="#DejaVuSerif-31" x="127.246094"/>
       <use xlink:href="#DejaVuSerif-33" x="190.869141"/>
      </g>
     </g>
    </g>
    <g id="xtick_15">
     <g id="line2d_29">
      <path d="M 256.08465 169.559 
L 256.08465 27.0932 
" clip-path="url(#p155d667805)" style="fill: none; stroke-dasharray: 2.96,1.28; stroke-dashoffset: 0; stroke: #b0b0b0; stroke-opacity: 0.5; stroke-width: 0.8"/>
     </g>
     <g id="line2d_30">
      <g>
       <use xlink:href="#m14f48476c4" x="256.08465" y="169.559" style="stroke: #000000; stroke-width: 0.8"/>
      </g>
     </g>
     <g id="text_15">
      <!-- 2014 -->
      <g transform="translate(240.511507 195.254019) rotate(-45) scale(0.08 -0.08)">
       <use xlink:href="#DejaVuSerif-32"/>
       <use xlink:href="#DejaVuSerif-30" x="63.623047"/>
       <use xlink:href="#DejaVuSerif-31" x="127.246094"/>
       <use xlink:href="#DejaVuSerif-34" x="190.869141"/>
      </g>
     </g>
    </g>
    <g id="xtick_16">
     <g id="line2d_31">
      <path d="M 270.79135 169.559 
L 270.79135 27.0932 
" clip-path="url(#p155d667805)" style="fill: none; stroke-dasharray: 2.96,1.28; stroke-dashoffset: 0; stroke: #b0b0b0; stroke-opacity: 0.5; stroke-width: 0.8"/>
     </g>
     <g id="line2d_32">
      <g>
       <use xlink:href="#m14f48476c4" x="270.79135" y="169.559" style="stroke: #000000; stroke-width: 0.8"/>
      </g>
     </g>
     <g id="text_16">
      <!-- 2015 -->
      <g transform="translate(255.218207 195.254019) rotate(-45) scale(0.08 -0.08)">
       <use xlink:href="#DejaVuSerif-32"/>
       <use xlink:href="#DejaVuSerif-30" x="63.623047"/>
       <use xlink:href="#DejaVuSerif-31" x="127.246094"/>
       <use xlink:href="#DejaVuSerif-35" x="190.869141"/>
      </g>
     </g>
    </g>
    <g id="xtick_17">
     <g id="line2d_33">
      <path d="M 285.49805 169.559 
L 285.49805 27.0932 
" clip-path="url(#p155d667805)" style="fill: none; stroke-dasharray: 2.96,1.28; stroke-dashoffset: 0; stroke: #b0b0b0; stroke-opacity: 0.5; stroke-width: 0.8"/>
     </g>
     <g id="line2d_34">
      <g>
       <use xlink:href="#m14f48476c4" x="285.49805" y="169.559" style="stroke: #000000; stroke-width: 0.8"/>
      </g>
     </g>
     <g id="text_17">
      <!-- 2016 -->
      <g transform="translate(269.924907 195.254019) rotate(-45) scale(0.08 -0.08)">
       <use xlink:href="#DejaVuSerif-32"/>
       <use xlink:href="#DejaVuSerif-30" x="63.623047"/>
       <use xlink:href="#DejaVuSerif-31" x="127.246094"/>
       <use xlink:href="#DejaVuSerif-36" x="190.869141"/>
      </g>
     </g>
    </g>
    <g id="xtick_18">
     <g id="line2d_35">
      <path d="M 300.20475 169.559 
L 300.20475 27.0932 
" clip-path="url(#p155d667805)" style="fill: none; stroke-dasharray: 2.96,1.28; stroke-dashoffset: 0; stroke: #b0b0b0; stroke-opacity: 0.5; stroke-width: 0.8"/>
     </g>
     <g id="line2d_36">
      <g>
       <use xlink:href="#m14f48476c4" x="300.20475" y="169.559" style="stroke: #000000; stroke-width: 0.8"/>
      </g>
     </g>
     <g id="text_18">
      <!-- 2017 -->
      <g transform="translate(284.631607 195.254019) rotate(-45) scale(0.08 -0.08)">
       <use xlink:href="#DejaVuSerif-32"/>
       <use xlink:href="#DejaVuSerif-30" x="63.623047"/>
       <use xlink:href="#DejaVuSerif-31" x="127.246094"/>
       <use xlink:href="#DejaVuSerif-37" x="190.869141"/>
      </g>
     </g>
    </g>
    <g id="xtick_19">
     <g id="line2d_37">
      <path d="M 314.91145 169.559 
L 314.91145 27.0932 
" clip-path="url(#p155d667805)" style="fill: none; stroke-dasharray: 2.96,1.28; stroke-dashoffset: 0; stroke: #b0b0b0; stroke-opacity: 0.5; stroke-width: 0.8"/>
     </g>
     <g id="line2d_38">
      <g>
       <use xlink:href="#m14f48476c4" x="314.91145" y="169.559" style="stroke: #000000; stroke-width: 0.8"/>
      </g>
     </g>
     <g id="text_19">
      <!-- 2018 -->
      <g transform="translate(299.338307 195.254019) rotate(-45) scale(0.08 -0.08)">
       <use xlink:href="#DejaVuSerif-32"/>
       <use xlink:href="#DejaVuSerif-30" x="63.623047"/>
       <use xlink:href="#DejaVuSerif-31" x="127.246094"/>
       <use xlink:href="#DejaVuSerif-38" x="190.869141"/>
      </g>
     </g>
    </g>
    <g id="xtick_20">
     <g id="line2d_39">
      <path d="M 329.61815 169.559 
L 329.61815 27.0932 
" clip-path="url(#p155d667805)" style="fill: none; stroke-dasharray: 2.96,1.28; stroke-dashoffset: 0; stroke: #b0b0b0; stroke-opacity: 0.5; stroke-width: 0.8"/>
     </g>
     <g id="line2d_40">
      <g>
       <use xlink:href="#m14f48476c4" x="329.61815" y="169.559" style="stroke: #000000; stroke-width: 0.8"/>
      </g>
     </g>
     <g id="text_20">
      <!-- 2019 -->
      <g transform="translate(314.045007 195.254019) rotate(-45) scale(0.08 -0.08)">
       <use xlink:href="#DejaVuSerif-32"/>
       <use xlink:href="#DejaVuSerif-30" x="63.623047"/>
       <use xlink:href="#DejaVuSerif-31" x="127.246094"/>
       <use xlink:href="#DejaVuSerif-39" x="190.869141"/>
      </g>
     </g>
    </g>
    <g id="xtick_21">
     <g id="line2d_41">
      <path d="M 344.32485 169.559 
L 344.32485 27.0932 
" clip-path="url(#p155d667805)" style="fill: none; stroke-dasharray: 2.96,1.28; stroke-dashoffset: 0; stroke: #b0b0b0; stroke-opacity: 0.5; stroke-width: 0.8"/>
     </g>
     <g id="line2d_42">
      <g>
       <use xlink:href="#m14f48476c4" x="344.32485" y="169.559" style="stroke: #000000; stroke-width: 0.8"/>
      </g>
     </g>
     <g id="text_21">
      <!-- 2020 -->
      <g transform="translate(328.751707 195.254019) rotate(-45) scale(0.08 -0.08)">
       <use xlink:href="#DejaVuSerif-32"/>
       <use xlink:href="#DejaVuSerif-30" x="63.623047"/>
       <use xlink:href="#DejaVuSerif-32" x="127.246094"/>
       <use xlink:href="#DejaVuSerif-30" x="190.869141"/>
      </g>
     </g>
    </g>
    <g id="xtick_22">
     <g id="line2d_43">
      <path d="M 359.03155 169.559 
L 359.03155 27.0932 
" clip-path="url(#p155d667805)" style="fill: none; stroke-dasharray: 2.96,1.28; stroke-dashoffset: 0; stroke: #b0b0b0; stroke-opacity: 0.5; stroke-width: 0.8"/>
     </g>
     <g id="line2d_44">
      <g>
       <use xlink:href="#m14f48476c4" x="359.03155" y="169.559" style="stroke: #000000; stroke-width: 0.8"/>
      </g>
     </g>
     <g id="text_22">
      <!-- 2021 -->
      <g transform="translate(343.458407 195.254019) rotate(-45) scale(0.08 -0.08)">
       <use xlink:href="#DejaVuSerif-32"/>
       <use xlink:href="#DejaVuSerif-30" x="63.623047"/>
       <use xlink:href="#DejaVuSerif-32" x="127.246094"/>
       <use xlink:href="#DejaVuSerif-31" x="190.869141"/>
      </g>
     </g>
    </g>
    <g id="xtick_23">
     <g id="line2d_45">
      <path d="M 373.73825 169.559 
L 373.73825 27.0932 
" clip-path="url(#p155d667805)" style="fill: none; stroke-dasharray: 2.96,1.28; stroke-dashoffset: 0; stroke: #b0b0b0; stroke-opacity: 0.5; stroke-width: 0.8"/>
     </g>
     <g id="line2d_46">
      <g>
       <use xlink:href="#m14f48476c4" x="373.73825" y="169.559" style="stroke: #000000; stroke-width: 0.8"/>
      </g>
     </g>
     <g id="text_23">
      <!-- 2022 -->
      <g transform="translate(358.165107 195.254019) rotate(-45) scale(0.08 -0.08)">
       <use xlink:href="#DejaVuSerif-32"/>
       <use xlink:href="#DejaVuSerif-30" x="63.623047"/>
       <use xlink:href="#DejaVuSerif-32" x="127.246094"/>
       <use xlink:href="#DejaVuSerif-32" x="190.869141"/>
      </g>
     </g>
    </g>
    <g id="xtick_24">
     <g id="line2d_47">
      <path d="M 388.44495 169.559 
L 388.44495 27.0932 
" clip-path="url(#p155d667805)" style="fill: none; stroke-dasharray: 2.96,1.28; stroke-dashoffset: 0; stroke: #b0b0b0; stroke-opacity: 0.5; stroke-width: 0.8"/>
     </g>
     <g id="line2d_48">
      <g>
       <use xlink:href="#m14f48476c4" x="388.44495" y="169.559" style="stroke: #000000; stroke-width: 0.8"/>
      </g>
     </g>
     <g id="text_24">
      <!-- 2023 -->
      <g transform="translate(372.871807 195.254019) rotate(-45) scale(0.08 -0.08)">
       <use xlink:href="#DejaVuSerif-32"/>
       <use xlink:href="#DejaVuSerif-30" x="63.623047"/>
       <use xlink:href="#DejaVuSerif-32" x="127.246094"/>
       <use xlink:href="#DejaVuSerif-33" x="190.869141"/>
      </g>
     </g>
    </g>
    <g id="xtick_25">
     <g id="line2d_49">
      <path d="M 403.15165 169.559 
L 403.15165 27.0932 
" clip-path="url(#p155d667805)" style="fill: none; stroke-dasharray: 2.96,1.28; stroke-dashoffset: 0; stroke: #b0b0b0; stroke-opacity: 0.5; stroke-width: 0.8"/>
     </g>
     <g id="line2d_50">
      <g>
       <use xlink:href="#m14f48476c4" x="403.15165" y="169.559" style="stroke: #000000; stroke-width: 0.8"/>
      </g>
     </g>
     <g id="text_25">
      <!-- 2024 -->
      <g transform="translate(387.578507 195.254019) rotate(-45) scale(0.08 -0.08)">
       <use xlink:href="#DejaVuSerif-32"/>
       <use xlink:href="#DejaVuSerif-30" x="63.623047"/>
       <use xlink:href="#DejaVuSerif-32" x="127.246094"/>
       <use xlink:href="#DejaVuSerif-34" x="190.869141"/>
      </g>
     </g>
    </g>
    <g id="text_26">
     <!-- Série histórica -->
     <g transform="translate(196.99375 206.509218) scale(0.08 -0.08)">
      <defs>
       <path id="DejaVuSerif-53" d="M 594 225 
L 594 1288 
L 953 1284 
Q 969 753 1261 498 
Q 1553 244 2150 244 
Q 2706 244 2998 464 
Q 3291 684 3291 1106 
Q 3291 1444 3114 1625 
Q 2938 1806 2369 1978 
L 1753 2163 
Q 1084 2366 811 2669 
Q 538 2972 538 3500 
Q 538 4094 959 4422 
Q 1381 4750 2144 4750 
Q 2469 4750 2856 4679 
Q 3244 4609 3681 4475 
L 3681 3481 
L 3328 3481 
Q 3275 3975 2998 4195 
Q 2722 4416 2156 4416 
Q 1663 4416 1405 4214 
Q 1147 4013 1147 3628 
Q 1147 3294 1340 3103 
Q 1534 2913 2163 2725 
L 2741 2553 
Q 3375 2363 3645 2067 
Q 3916 1772 3916 1275 
Q 3916 597 3481 253 
Q 3047 -91 2188 -91 
Q 1803 -91 1404 -12 
Q 1006 66 594 225 
z
" transform="scale(0.015625)"/>
       <path id="DejaVuSerif-e9" d="M 3469 1600 
L 991 1600 
L 991 1575 
Q 991 903 1244 561 
Q 1497 219 1991 219 
Q 2369 219 2611 417 
Q 2853 616 2950 1006 
L 3413 1006 
Q 3275 459 2904 184 
Q 2534 -91 1931 -91 
Q 1203 -91 761 389 
Q 319 869 319 1663 
Q 319 2450 753 2931 
Q 1188 3413 1894 3413 
Q 2647 3413 3050 2948 
Q 3453 2484 3469 1600 
z
M 2791 1931 
Q 2772 2513 2545 2808 
Q 2319 3103 1894 3103 
Q 1497 3103 1269 2806 
Q 1041 2509 991 1931 
L 2791 1931 
z
M 2330 5119 
L 2952 5119 
L 1890 3944 
L 1524 3944 
L 2330 5119 
z
" transform="scale(0.015625)"/>
       <path id="DejaVuSerif-72" d="M 3059 3328 
L 3059 2497 
L 2728 2497 
Q 2713 2744 2591 2866 
Q 2469 2988 2234 2988 
Q 1809 2988 1582 2694 
Q 1356 2400 1356 1850 
L 1356 331 
L 2022 331 
L 2022 0 
L 263 0 
L 263 331 
L 781 331 
L 781 2994 
L 231 2994 
L 231 3322 
L 1356 3322 
L 1356 2731 
Q 1525 3078 1790 3245 
Q 2056 3413 2438 3413 
Q 2578 3413 2733 3391 
Q 2888 3369 3059 3328 
z
" transform="scale(0.015625)"/>
       <path id="DejaVuSerif-69" d="M 622 4353 
Q 622 4497 726 4603 
Q 831 4709 978 4709 
Q 1122 4709 1226 4603 
Q 1331 4497 1331 4353 
Q 1331 4206 1228 4103 
Q 1125 4000 978 4000 
Q 831 4000 726 4103 
Q 622 4206 622 4353 
z
M 1356 331 
L 1900 331 
L 1900 0 
L 231 0 
L 231 331 
L 781 331 
L 781 2988 
L 231 2988 
L 231 3322 
L 1356 3322 
L 1356 331 
z
" transform="scale(0.015625)"/>
       <path id="DejaVuSerif-65" d="M 3469 1600 
L 991 1600 
L 991 1575 
Q 991 903 1244 561 
Q 1497 219 1991 219 
Q 2369 219 2611 417 
Q 2853 616 2950 1006 
L 3413 1006 
Q 3275 459 2904 184 
Q 2534 -91 1931 -91 
Q 1203 -91 761 389 
Q 319 869 319 1663 
Q 319 2450 753 2931 
Q 1188 3413 1894 3413 
Q 2647 3413 3050 2948 
Q 3453 2484 3469 1600 
z
M 2791 1931 
Q 2772 2513 2545 2808 
Q 2319 3103 1894 3103 
Q 1497 3103 1269 2806 
Q 1041 2509 991 1931 
L 2791 1931 
z
" transform="scale(0.015625)"/>
       <path id="DejaVuSerif-20" transform="scale(0.015625)"/>
       <path id="DejaVuSerif-68" d="M 263 0 
L 263 331 
L 781 331 
L 781 4531 
L 231 4531 
L 231 4863 
L 1356 4863 
L 1356 2731 
Q 1516 3069 1770 3241 
Q 2025 3413 2363 3413 
Q 2913 3413 3172 3097 
Q 3431 2781 3431 2113 
L 3431 331 
L 3944 331 
L 3944 0 
L 2356 0 
L 2356 331 
L 2853 331 
L 2853 1931 
Q 2853 2541 2704 2764 
Q 2556 2988 2175 2988 
Q 1775 2988 1565 2697 
Q 1356 2406 1356 1850 
L 1356 331 
L 1856 331 
L 1856 0 
L 263 0 
z
" transform="scale(0.015625)"/>
       <path id="DejaVuSerif-73" d="M 359 184 
L 359 959 
L 691 959 
Q 703 588 923 403 
Q 1144 219 1575 219 
Q 1963 219 2166 364 
Q 2369 509 2369 788 
Q 2369 1006 2220 1140 
Q 2072 1275 1594 1428 
L 1178 1569 
Q 750 1706 558 1912 
Q 366 2119 366 2438 
Q 366 2894 700 3153 
Q 1034 3413 1625 3413 
Q 1888 3413 2178 3344 
Q 2469 3275 2778 3144 
L 2778 2419 
L 2447 2419 
Q 2434 2741 2221 2922 
Q 2009 3103 1644 3103 
Q 1281 3103 1095 2975 
Q 909 2847 909 2591 
Q 909 2381 1050 2254 
Q 1191 2128 1613 1997 
L 2069 1856 
Q 2541 1709 2748 1489 
Q 2956 1269 2956 922 
Q 2956 450 2595 179 
Q 2234 -91 1600 -91 
Q 1278 -91 972 -22 
Q 666 47 359 184 
z
" transform="scale(0.015625)"/>
       <path id="DejaVuSerif-74" d="M 691 2988 
L 184 2988 
L 184 3322 
L 691 3322 
L 691 4353 
L 1269 4353 
L 1269 3322 
L 2350 3322 
L 2350 2988 
L 1269 2988 
L 1269 878 
Q 1269 456 1350 337 
Q 1431 219 1650 219 
Q 1875 219 1978 351 
Q 2081 484 2088 781 
L 2522 781 
Q 2497 328 2275 118 
Q 2053 -91 1600 -91 
Q 1103 -91 897 129 
Q 691 350 691 878 
L 691 2988 
z
" transform="scale(0.015625)"/>
       <path id="DejaVuSerif-f3" d="M 1925 219 
Q 2388 219 2623 584 
Q 2859 950 2859 1663 
Q 2859 2375 2623 2739 
Q 2388 3103 1925 3103 
Q 1463 3103 1227 2739 
Q 991 2375 991 1663 
Q 991 950 1228 584 
Q 1466 219 1925 219 
z
M 1925 -91 
Q 1200 -91 759 389 
Q 319 869 319 1663 
Q 319 2456 758 2934 
Q 1197 3413 1925 3413 
Q 2653 3413 3092 2934 
Q 3531 2456 3531 1663 
Q 3531 869 3092 389 
Q 2653 -91 1925 -91 
z
M 2362 5119 
L 2984 5119 
L 1922 3944 
L 1556 3944 
L 2362 5119 
z
" transform="scale(0.015625)"/>
       <path id="DejaVuSerif-63" d="M 3291 997 
Q 3169 466 2822 187 
Q 2475 -91 1925 -91 
Q 1200 -91 759 389 
Q 319 869 319 1663 
Q 319 2459 759 2936 
Q 1200 3413 1925 3413 
Q 2241 3413 2553 3339 
Q 2866 3266 3181 3116 
L 3181 2266 
L 2847 2266 
Q 2781 2703 2561 2903 
Q 2341 3103 1931 3103 
Q 1466 3103 1228 2742 
Q 991 2381 991 1663 
Q 991 944 1227 581 
Q 1463 219 1931 219 
Q 2303 219 2525 412 
Q 2747 606 2828 997 
L 3291 997 
z
" transform="scale(0.015625)"/>
       <path id="DejaVuSerif-61" d="M 2547 1044 
L 2547 1747 
L 1806 1747 
Q 1378 1747 1168 1562 
Q 959 1378 959 997 
Q 959 650 1171 447 
Q 1384 244 1747 244 
Q 2106 244 2326 466 
Q 2547 688 2547 1044 
z
M 3122 2075 
L 3122 331 
L 3634 331 
L 3634 0 
L 2547 0 
L 2547 359 
Q 2356 128 2106 18 
Q 1856 -91 1522 -91 
Q 969 -91 644 203 
Q 319 497 319 997 
Q 319 1513 691 1797 
Q 1063 2081 1741 2081 
L 2547 2081 
L 2547 2309 
Q 2547 2688 2317 2895 
Q 2088 3103 1672 3103 
Q 1328 3103 1125 2947 
Q 922 2791 872 2484 
L 575 2484 
L 575 3156 
Q 875 3284 1158 3348 
Q 1441 3413 1709 3413 
Q 2400 3413 2761 3070 
Q 3122 2728 3122 2075 
z
" transform="scale(0.015625)"/>
      </defs>
      <use xlink:href="#DejaVuSerif-53"/>
      <use xlink:href="#DejaVuSerif-e9" x="68.505859"/>
      <use xlink:href="#DejaVuSerif-72" x="127.685547"/>
      <use xlink:href="#DejaVuSerif-69" x="175.488281"/>
      <use xlink:href="#DejaVuSerif-65" x="207.470703"/>
      <use xlink:href="#DejaVuSerif-20" x="266.650391"/>
      <use xlink:href="#DejaVuSerif-68" x="298.4375"/>
      <use xlink:href="#DejaVuSerif-69" x="362.841797"/>
      <use xlink:href="#DejaVuSerif-73" x="394.824219"/>
      <use xlink:href="#DejaVuSerif-74" x="446.142578"/>
      <use xlink:href="#DejaVuSerif-f3" x="486.328125"/>
      <use xlink:href="#DejaVuSerif-72" x="546.533203"/>
      <use xlink:href="#DejaVuSerif-69" x="594.335938"/>
      <use xlink:href="#DejaVuSerif-63" x="626.318359"/>
      <use xlink:href="#DejaVuSerif-61" x="682.324219"/>
     </g>
    </g>
   </g>
   <g id="matplotlib.axis_2">
    <g id="ytick_1">
     <g id="line2d_51">
      <path d="M 42.8375 169.559 
L 410.505 169.559 
" clip-path="url(#p155d667805)" style="fill: none; stroke-dasharray: 2.96,1.28; stroke-dashoffset: 0; stroke: #b0b0b0; stroke-opacity: 0.5; stroke-width: 0.8"/>
     </g>
     <g id="line2d_52">
      <defs>
       <path id="m161026c3b5" d="M 0 0 
L -3.5 0 
" style="stroke: #000000; stroke-width: 0.8"/>
      </defs>
      <g>
       <use xlink:href="#m161026c3b5" x="42.8375" y="169.559" style="stroke: #000000; stroke-width: 0.8"/>
      </g>
     </g>
     <g id="text_27">
      <!-- 0 -->
      <g transform="translate(30.7475 172.598375) scale(0.08 -0.08)">
       <use xlink:href="#DejaVuSerif-30"/>
      </g>
     </g>
    </g>
    <g id="ytick_2">
     <g id="line2d_53">
      <path d="M 42.8375 141.06584 
L 410.505 141.06584 
" clip-path="url(#p155d667805)" style="fill: none; stroke-dasharray: 2.96,1.28; stroke-dashoffset: 0; stroke: #b0b0b0; stroke-opacity: 0.5; stroke-width: 0.8"/>
     </g>
     <g id="line2d_54">
      <g>
       <use xlink:href="#m161026c3b5" x="42.8375" y="141.06584" style="stroke: #000000; stroke-width: 0.8"/>
      </g>
     </g>
     <g id="text_28">
      <!-- 20 -->
      <g transform="translate(25.6575 144.105215) scale(0.08 -0.08)">
       <use xlink:href="#DejaVuSerif-32"/>
       <use xlink:href="#DejaVuSerif-30" x="63.623047"/>
      </g>
     </g>
    </g>
    <g id="ytick_3">
     <g id="line2d_55">
      <path d="M 42.8375 112.57268 
L 410.505 112.57268 
" clip-path="url(#p155d667805)" style="fill: none; stroke-dasharray: 2.96,1.28; stroke-dashoffset: 0; stroke: #b0b0b0; stroke-opacity: 0.5; stroke-width: 0.8"/>
     </g>
     <g id="line2d_56">
      <g>
       <use xlink:href="#m161026c3b5" x="42.8375" y="112.57268" style="stroke: #000000; stroke-width: 0.8"/>
      </g>
     </g>
     <g id="text_29">
      <!-- 40 -->
      <g transform="translate(25.6575 115.612055) scale(0.08 -0.08)">
       <use xlink:href="#DejaVuSerif-34"/>
       <use xlink:href="#DejaVuSerif-30" x="63.623047"/>
      </g>
     </g>
    </g>
    <g id="ytick_4">
     <g id="line2d_57">
      <path d="M 42.8375 84.07952 
L 410.505 84.07952 
" clip-path="url(#p155d667805)" style="fill: none; stroke-dasharray: 2.96,1.28; stroke-dashoffset: 0; stroke: #b0b0b0; stroke-opacity: 0.5; stroke-width: 0.8"/>
     </g>
     <g id="line2d_58">
      <g>
       <use xlink:href="#m161026c3b5" x="42.8375" y="84.07952" style="stroke: #000000; stroke-width: 0.8"/>
      </g>
     </g>
     <g id="text_30">
      <!-- 60 -->
      <g transform="translate(25.6575 87.118895) scale(0.08 -0.08)">
       <use xlink:href="#DejaVuSerif-36"/>
       <use xlink:href="#DejaVuSerif-30" x="63.623047"/>
      </g>
     </g>
    </g>
    <g id="ytick_5">
     <g id="line2d_59">
      <path d="M 42.8375 55.58636 
L 410.505 55.58636 
" clip-path="url(#p155d667805)" style="fill: none; stroke-dasharray: 2.96,1.28; stroke-dashoffset: 0; stroke: #b0b0b0; stroke-opacity: 0.5; stroke-width: 0.8"/>
     </g>
     <g id="line2d_60">
      <g>
       <use xlink:href="#m161026c3b5" x="42.8375" y="55.58636" style="stroke: #000000; stroke-width: 0.8"/>
      </g>
     </g>
     <g id="text_31">
      <!-- 80 -->
      <g transform="translate(25.6575 58.625735) scale(0.08 -0.08)">
       <use xlink:href="#DejaVuSerif-38"/>
       <use xlink:href="#DejaVuSerif-30" x="63.623047"/>
      </g>
     </g>
    </g>
    <g id="ytick_6">
     <g id="line2d_61">
      <path d="M 42.8375 27.0932 
L 410.505 27.0932 
" clip-path="url(#p155d667805)" style="fill: none; stroke-dasharray: 2.96,1.28; stroke-dashoffset: 0; stroke: #b0b0b0; stroke-opacity: 0.5; stroke-width: 0.8"/>
     </g>
     <g id="line2d_62">
      <g>
       <use xlink:href="#m161026c3b5" x="42.8375" y="27.0932" style="stroke: #000000; stroke-width: 0.8"/>
      </g>
     </g>
     <g id="text_32">
      <!-- 100 -->
      <g transform="translate(20.5675 30.132575) scale(0.08 -0.08)">
       <use xlink:href="#DejaVuSerif-31"/>
       <use xlink:href="#DejaVuSerif-30" x="63.623047"/>
       <use xlink:href="#DejaVuSerif-30" x="127.246094"/>
      </g>
     </g>
    </g>
    <g id="text_33">
     <!-- Geração total [%] -->
     <g transform="translate(14.90375 133.9711) rotate(-90) scale(0.08 -0.08)">
      <defs>
       <path id="DejaVuSerif-47" d="M 4097 3272 
Q 3988 3856 3641 4136 
Q 3294 4416 2675 4416 
Q 1869 4416 1472 3897 
Q 1075 3378 1075 2328 
Q 1075 1300 1484 772 
Q 1894 244 2688 244 
Q 3041 244 3362 331 
Q 3684 419 3975 594 
L 3975 1797 
L 3097 1797 
L 3097 2131 
L 4609 2131 
L 4609 391 
Q 4194 150 3714 29 
Q 3234 -91 2688 -91 
Q 1631 -91 995 570 
Q 359 1231 359 2328 
Q 359 3434 996 4092 
Q 1634 4750 2713 4750 
Q 3113 4750 3539 4658 
Q 3966 4566 4447 4378 
L 4447 3272 
L 4097 3272 
z
" transform="scale(0.015625)"/>
       <path id="DejaVuSerif-e7" d="M 3291 997 
Q 3169 466 2822 187 
Q 2475 -91 1925 -91 
Q 1200 -91 759 389 
Q 319 869 319 1663 
Q 319 2459 759 2936 
Q 1200 3413 1925 3413 
Q 2241 3413 2553 3339 
Q 2866 3266 3181 3116 
L 3181 2266 
L 2847 2266 
Q 2781 2703 2561 2903 
Q 2341 3103 1931 3103 
Q 1466 3103 1228 2742 
Q 991 2381 991 1663 
Q 991 944 1227 581 
Q 1463 219 1931 219 
Q 2303 219 2525 412 
Q 2747 606 2828 997 
L 3291 997 
z
M 2118 0 
Q 2318 -200 2416 -375 
Q 2515 -550 2515 -703 
Q 2515 -956 2318 -1095 
Q 2121 -1234 1771 -1234 
Q 1640 -1234 1502 -1215 
Q 1365 -1197 1221 -1159 
L 1221 -750 
Q 1350 -803 1473 -829 
Q 1596 -856 1706 -856 
Q 1884 -856 1987 -773 
Q 2090 -691 2090 -550 
Q 2090 -463 2021 -325 
Q 1953 -188 1815 0 
L 2118 0 
z
" transform="scale(0.015625)"/>
       <path id="DejaVuSerif-e3" d="M 2547 1044 
L 2547 1747 
L 1806 1747 
Q 1378 1747 1168 1562 
Q 959 1378 959 997 
Q 959 650 1171 447 
Q 1384 244 1747 244 
Q 2106 244 2326 466 
Q 2547 688 2547 1044 
z
M 3122 2075 
L 3122 331 
L 3634 331 
L 3634 0 
L 2547 0 
L 2547 359 
Q 2356 128 2106 18 
Q 1856 -91 1522 -91 
Q 969 -91 644 203 
Q 319 497 319 997 
Q 319 1513 691 1797 
Q 1063 2081 1741 2081 
L 2547 2081 
L 2547 2309 
Q 2547 2688 2317 2895 
Q 2088 3103 1672 3103 
Q 1328 3103 1125 2947 
Q 922 2791 872 2484 
L 575 2484 
L 575 3156 
Q 875 3284 1158 3348 
Q 1441 3413 1709 3413 
Q 2400 3413 2761 3070 
Q 3122 2728 3122 2075 
z
M 1764 4281 
L 1585 4453 
Q 1504 4528 1452 4551 
Q 1401 4575 1342 4575 
Q 1210 4575 1135 4451 
Q 1060 4328 1045 4091 
L 745 4091 
Q 751 4513 910 4742 
Q 1070 4972 1354 4972 
Q 1473 4972 1573 4928 
Q 1673 4884 1789 4781 
L 1967 4609 
Q 2039 4538 2092 4513 
Q 2145 4488 2210 4488 
Q 2345 4488 2420 4613 
Q 2495 4738 2507 4972 
L 2807 4972 
Q 2801 4550 2641 4320 
Q 2482 4091 2198 4091 
Q 2079 4091 1979 4134 
Q 1879 4178 1764 4281 
z
" transform="scale(0.015625)"/>
       <path id="DejaVuSerif-6f" d="M 1925 219 
Q 2388 219 2623 584 
Q 2859 950 2859 1663 
Q 2859 2375 2623 2739 
Q 2388 3103 1925 3103 
Q 1463 3103 1227 2739 
Q 991 2375 991 1663 
Q 991 950 1228 584 
Q 1466 219 1925 219 
z
M 1925 -91 
Q 1200 -91 759 389 
Q 319 869 319 1663 
Q 319 2456 758 2934 
Q 1197 3413 1925 3413 
Q 2653 3413 3092 2934 
Q 3531 2456 3531 1663 
Q 3531 869 3092 389 
Q 2653 -91 1925 -91 
z
" transform="scale(0.015625)"/>
       <path id="DejaVuSerif-6c" d="M 1313 331 
L 1856 331 
L 1856 0 
L 184 0 
L 184 331 
L 738 331 
L 738 4531 
L 184 4531 
L 184 4863 
L 1313 4863 
L 1313 331 
z
" transform="scale(0.015625)"/>
       <path id="DejaVuSerif-5b" d="M 550 4863 
L 2003 4863 
L 2003 4531 
L 1147 4531 
L 1147 -513 
L 2003 -513 
L 2003 -844 
L 550 -844 
L 550 4863 
z
" transform="scale(0.015625)"/>
       <path id="DejaVuSerif-25" d="M 1434 4459 
Q 1159 4459 1004 4200 
Q 850 3941 850 3475 
Q 850 3016 1008 2753 
Q 1166 2491 1434 2491 
Q 1700 2491 1854 2752 
Q 2009 3013 2009 3475 
Q 2009 3938 1854 4198 
Q 1700 4459 1434 4459 
z
M 4653 2169 
Q 4381 2169 4226 1906 
Q 4072 1644 4072 1178 
Q 4072 719 4228 458 
Q 4384 197 4653 197 
Q 4922 197 5075 458 
Q 5228 719 5228 1178 
Q 5228 1641 5073 1905 
Q 4919 2169 4653 2169 
z
M 4653 2450 
Q 5147 2450 5437 2106 
Q 5728 1763 5728 1178 
Q 5728 594 5436 251 
Q 5144 -91 4653 -91 
Q 4153 -91 3862 251 
Q 3572 594 3572 1178 
Q 3572 1766 3864 2108 
Q 4156 2450 4653 2450 
z
M 4263 4750 
L 4738 4750 
L 1819 -91 
L 1344 -91 
L 4263 4750 
z
M 1428 4750 
Q 1922 4750 2215 4408 
Q 2509 4066 2509 3481 
Q 2509 2891 2217 2550 
Q 1925 2209 1428 2209 
Q 931 2209 642 2551 
Q 353 2894 353 3481 
Q 353 4063 643 4406 
Q 934 4750 1428 4750 
z
" transform="scale(0.015625)"/>
       <path id="DejaVuSerif-5d" d="M 1947 4863 
L 1947 -844 
L 494 -844 
L 494 -513 
L 1350 -513 
L 1350 4531 
L 494 4531 
L 494 4863 
L 1947 4863 
z
" transform="scale(0.015625)"/>
      </defs>
      <use xlink:href="#DejaVuSerif-47"/>
      <use xlink:href="#DejaVuSerif-65" x="79.882812"/>
      <use xlink:href="#DejaVuSerif-72" x="139.0625"/>
      <use xlink:href="#DejaVuSerif-61" x="186.865234"/>
      <use xlink:href="#DejaVuSerif-e7" x="246.484375"/>
      <use xlink:href="#DejaVuSerif-e3" x="302.490234"/>
      <use xlink:href="#DejaVuSerif-6f" x="362.109375"/>
      <use xlink:href="#DejaVuSerif-20" x="422.314453"/>
      <use xlink:href="#DejaVuSerif-74" x="454.101562"/>
      <use xlink:href="#DejaVuSerif-6f" x="494.287109"/>
      <use xlink:href="#DejaVuSerif-74" x="554.492188"/>
      <use xlink:href="#DejaVuSerif-61" x="594.677734"/>
      <use xlink:href="#DejaVuSerif-6c" x="654.296875"/>
      <use xlink:href="#DejaVuSerif-20" x="686.279297"/>
      <use xlink:href="#DejaVuSerif-5b" x="718.066406"/>
      <use xlink:href="#DejaVuSerif-25" x="757.080078"/>
      <use xlink:href="#DejaVuSerif-5d" x="852.099609"/>
     </g>
    </g>
   </g>
   <g id="patch_3">
    <path d="M 46.514175 169.559 
L 53.867525 169.559 
L 53.867525 35.491836 
L 46.514175 35.491836 
z
" clip-path="url(#p155d667805)" style="fill: #3867ff"/>
   </g>
   <g id="patch_4">
    <path d="M 61.220875 169.559 
L 68.574225 169.559 
L 68.574225 41.87558 
L 61.220875 41.87558 
z
" clip-path="url(#p155d667805)" style="fill: #3867ff"/>
   </g>
   <g id="patch_5">
    <path d="M 75.927575 169.559 
L 83.280925 169.559 
L 83.280925 39.941824 
L 75.927575 39.941824 
z
" clip-path="url(#p155d667805)" style="fill: #3867ff"/>
   </g>
   <g id="patch_6">
    <path d="M 90.634275 169.559 
L 97.987625 169.559 
L 97.987625 38.270372 
L 90.634275 38.270372 
z
" clip-path="url(#p155d667805)" style="fill: #3867ff"/>
   </g>
   <g id="patch_7">
    <path d="M 105.340975 169.559 
L 112.694325 169.559 
L 112.694325 39.359771 
L 105.340975 39.359771 
z
" clip-path="url(#p155d667805)" style="fill: #3867ff"/>
   </g>
   <g id="patch_8">
    <path d="M 120.047675 169.559 
L 127.401025 169.559 
L 127.401025 37.855187 
L 120.047675 37.855187 
z
" clip-path="url(#p155d667805)" style="fill: #3867ff"/>
   </g>
   <g id="patch_9">
    <path d="M 134.754375 169.559 
L 142.107725 169.559 
L 142.107725 38.767735 
L 134.754375 38.767735 
z
" clip-path="url(#p155d667805)" style="fill: #3867ff"/>
   </g>
   <g id="patch_10">
    <path d="M 149.461075 169.559 
L 156.814425 169.559 
L 156.814425 37.376866 
L 149.461075 37.376866 
z
" clip-path="url(#p155d667805)" style="fill: #3867ff"/>
   </g>
   <g id="patch_11">
    <path d="M 164.167775 169.559 
L 171.521125 169.559 
L 171.521125 43.313937 
L 164.167775 43.313937 
z
" clip-path="url(#p155d667805)" style="fill: #3867ff"/>
   </g>
   <g id="patch_12">
    <path d="M 178.874475 169.559 
L 186.227825 169.559 
L 186.227825 36.676668 
L 178.874475 36.676668 
z
" clip-path="url(#p155d667805)" style="fill: #3867ff"/>
   </g>
   <g id="patch_13">
    <path d="M 193.581175 169.559 
L 200.934525 169.559 
L 200.934525 42.800839 
L 193.581175 42.800839 
z
" clip-path="url(#p155d667805)" style="fill: #3867ff"/>
   </g>
   <g id="patch_14">
    <path d="M 208.287875 169.559 
L 215.641225 169.559 
L 215.641225 39.57379 
L 208.287875 39.57379 
z
" clip-path="url(#p155d667805)" style="fill: #3867ff"/>
   </g>
   <g id="patch_15">
    <path d="M 222.994575 169.559 
L 230.347925 169.559 
L 230.347925 46.567801 
L 222.994575 46.567801 
z
" clip-path="url(#p155d667805)" style="fill: #3867ff"/>
   </g>
   <g id="patch_16">
    <path d="M 237.701275 169.559 
L 245.054625 169.559 
L 245.054625 54.760359 
L 237.701275 54.760359 
z
" clip-path="url(#p155d667805)" style="fill: #3867ff"/>
   </g>
   <g id="patch_17">
    <path d="M 252.407975 169.559 
L 259.761325 169.559 
L 259.761325 65.863108 
L 252.407975 65.863108 
z
" clip-path="url(#p155d667805)" style="fill: #3867ff"/>
   </g>
   <g id="patch_18">
    <path d="M 267.114675 169.559 
L 274.468025 169.559 
L 274.468025 68.320204 
L 267.114675 68.320204 
z
" clip-path="url(#p155d667805)" style="fill: #3867ff"/>
   </g>
   <g id="patch_19">
    <path d="M 281.821375 169.559 
L 289.174725 169.559 
L 289.174725 61.572686 
L 281.821375 61.572686 
z
" clip-path="url(#p155d667805)" style="fill: #3867ff"/>
   </g>
   <g id="patch_20">
    <path d="M 296.528075 169.559 
L 303.881425 169.559 
L 303.881425 67.116057 
L 296.528075 67.116057 
z
" clip-path="url(#p155d667805)" style="fill: #3867ff"/>
   </g>
   <g id="patch_21">
    <path d="M 311.234775 169.559 
L 318.588125 169.559 
L 318.588125 64.337127 
L 311.234775 64.337127 
z
" clip-path="url(#p155d667805)" style="fill: #3867ff"/>
   </g>
   <g id="patch_22">
    <path d="M 325.941475 169.559 
L 333.294825 169.559 
L 333.294825 66.257394 
L 325.941475 66.257394 
z
" clip-path="url(#p155d667805)" style="fill: #3867ff"/>
   </g>
   <g id="patch_23">
    <path d="M 340.648175 169.559 
L 348.001525 169.559 
L 348.001525 65.534596 
L 340.648175 65.534596 
z
" clip-path="url(#p155d667805)" style="fill: #3867ff"/>
   </g>
   <g id="patch_24">
    <path d="M 355.354875 169.559 
L 362.708225 169.559 
L 362.708225 80.387227 
L 355.354875 80.387227 
z
" clip-path="url(#p155d667805)" style="fill: #3867ff"/>
   </g>
   <g id="patch_25">
    <path d="M 370.061575 169.559 
L 377.414925 169.559 
L 377.414925 67.098395 
L 370.061575 67.098395 
z
" clip-path="url(#p155d667805)" style="fill: #3867ff"/>
   </g>
   <g id="patch_26">
    <path d="M 384.768275 169.559 
L 392.121625 169.559 
L 392.121625 73.299477 
L 384.768275 73.299477 
z
" clip-path="url(#p155d667805)" style="fill: #3867ff"/>
   </g>
   <g id="patch_27">
    <path d="M 399.474975 169.559 
L 406.828325 169.559 
L 406.828325 81.740044 
L 399.474975 81.740044 
z
" clip-path="url(#p155d667805)" style="fill: #3867ff"/>
   </g>
   <g id="patch_28">
    <path d="M 46.514175 35.491836 
L 53.867525 35.491836 
L 53.867525 27.14516 
L 46.514175 27.14516 
z
" clip-path="url(#p155d667805)" style="fill: #ff6038"/>
   </g>
   <g id="patch_29">
    <path d="M 61.220875 41.87558 
L 68.574225 41.87558 
L 68.574225 27.1194 
L 61.220875 27.1194 
z
" clip-path="url(#p155d667805)" style="fill: #ff6038"/>
   </g>
   <g id="patch_30">
    <path d="M 75.927575 39.941824 
L 83.280925 39.941824 
L 83.280925 27.103493 
L 75.927575 27.103493 
z
" clip-path="url(#p155d667805)" style="fill: #ff6038"/>
   </g>
   <g id="patch_31">
    <path d="M 90.634275 38.270372 
L 97.987625 38.270372 
L 97.987625 27.093438 
L 90.634275 27.093438 
z
" clip-path="url(#p155d667805)" style="fill: #ff6038"/>
   </g>
   <g id="patch_32">
    <path d="M 105.340975 39.359771 
L 112.694325 39.359771 
L 112.694325 27.093228 
L 105.340975 27.093228 
z
" clip-path="url(#p155d667805)" style="fill: #ff6038"/>
   </g>
   <g id="patch_33">
    <path d="M 120.047675 37.855187 
L 127.401025 37.855187 
L 127.401025 27.093247 
L 120.047675 27.093247 
z
" clip-path="url(#p155d667805)" style="fill: #ff6038"/>
   </g>
   <g id="patch_34">
    <path d="M 134.754375 38.767735 
L 142.107725 38.767735 
L 142.107725 27.182762 
L 134.754375 27.182762 
z
" clip-path="url(#p155d667805)" style="fill: #ff6038"/>
   </g>
   <g id="patch_35">
    <path d="M 149.461075 37.376866 
L 156.814425 37.376866 
L 156.814425 27.763671 
L 149.461075 27.763671 
z
" clip-path="url(#p155d667805)" style="fill: #ff6038"/>
   </g>
   <g id="patch_36">
    <path d="M 164.167775 43.313937 
L 171.521125 43.313937 
L 171.521125 28.329954 
L 164.167775 28.329954 
z
" clip-path="url(#p155d667805)" style="fill: #ff6038"/>
   </g>
   <g id="patch_37">
    <path d="M 178.874475 36.676668 
L 186.227825 36.676668 
L 186.227825 27.982747 
L 178.874475 27.982747 
z
" clip-path="url(#p155d667805)" style="fill: #ff6038"/>
   </g>
   <g id="patch_38">
    <path d="M 193.581175 42.800839 
L 200.934525 42.800839 
L 200.934525 28.408236 
L 193.581175 28.408236 
z
" clip-path="url(#p155d667805)" style="fill: #ff6038"/>
   </g>
   <g id="patch_39">
    <path d="M 208.287875 39.57379 
L 215.641225 39.57379 
L 215.641225 28.762889 
L 208.287875 28.762889 
z
" clip-path="url(#p155d667805)" style="fill: #ff6038"/>
   </g>
   <g id="patch_40">
    <path d="M 222.994575 46.567801 
L 230.347925 46.567801 
L 230.347925 29.381171 
L 222.994575 29.381171 
z
" clip-path="url(#p155d667805)" style="fill: #ff6038"/>
   </g>
   <g id="patch_41">
    <path d="M 237.701275 54.760359 
L 245.054625 54.760359 
L 245.054625 30.399467 
L 237.701275 30.399467 
z
" clip-path="url(#p155d667805)" style="fill: #ff6038"/>
   </g>
   <g id="patch_42">
    <path d="M 252.407975 65.863108 
L 259.761325 65.863108 
L 259.761325 32.697933 
L 252.407975 32.697933 
z
" clip-path="url(#p155d667805)" style="fill: #ff6038"/>
   </g>
   <g id="patch_43">
    <path d="M 267.114675 68.320204 
L 274.468025 68.320204 
L 274.468025 35.848025 
L 267.114675 35.848025 
z
" clip-path="url(#p155d667805)" style="fill: #ff6038"/>
   </g>
   <g id="patch_44">
    <path d="M 281.821375 61.572686 
L 289.174725 61.572686 
L 289.174725 39.49021 
L 281.821375 39.49021 
z
" clip-path="url(#p155d667805)" style="fill: #ff6038"/>
   </g>
   <g id="patch_45">
    <path d="M 296.528075 67.116057 
L 303.881425 67.116057 
L 303.881425 42.620415 
L 296.528075 42.620415 
z
" clip-path="url(#p155d667805)" style="fill: #ff6038"/>
   </g>
   <g id="patch_46">
    <path d="M 311.234775 64.337127 
L 318.588125 64.337127 
L 318.588125 44.504955 
L 311.234775 44.504955 
z
" clip-path="url(#p155d667805)" style="fill: #ff6038"/>
   </g>
   <g id="patch_47">
    <path d="M 325.941475 66.257394 
L 333.294825 66.257394 
L 333.294825 46.412103 
L 325.941475 46.412103 
z
" clip-path="url(#p155d667805)" style="fill: #ff6038"/>
   </g>
   <g id="patch_48">
    <path d="M 340.648175 65.534596 
L 348.001525 65.534596 
L 348.001525 47.660667 
L 340.648175 47.660667 
z
" clip-path="url(#p155d667805)" style="fill: #ff6038"/>
   </g>
   <g id="patch_49">
    <path d="M 355.354875 80.387227 
L 362.708225 80.387227 
L 362.708225 50.349951 
L 355.354875 50.349951 
z
" clip-path="url(#p155d667805)" style="fill: #ff6038"/>
   </g>
   <g id="patch_50">
    <path d="M 370.061575 67.098395 
L 377.414925 67.098395 
L 377.414925 52.627456 
L 370.061575 52.627456 
z
" clip-path="url(#p155d667805)" style="fill: #ff6038"/>
   </g>
   <g id="patch_51">
    <path d="M 384.768275 73.299477 
L 392.121625 73.299477 
L 392.121625 60.675416 
L 384.768275 60.675416 
z
" clip-path="url(#p155d667805)" style="fill: #ff6038"/>
   </g>
   <g id="patch_52">
    <path d="M 399.474975 81.740044 
L 406.828325 81.740044 
L 406.828325 67.058925 
L 399.474975 67.058925 
z
" clip-path="url(#p155d667805)" style="fill: #ff6038"/>
   </g>
   <g id="patch_53">
    <path d="M 46.514175 169.559 
L 53.867525 169.559 
L 53.867525 169.559 
L 46.514175 169.559 
z
" clip-path="url(#p155d667805)" style="fill: #3e944f"/>
   </g>
   <g id="patch_54">
    <path d="M 61.220875 169.559 
L 68.574225 169.559 
L 68.574225 169.559 
L 61.220875 169.559 
z
" clip-path="url(#p155d667805)" style="fill: #3e944f"/>
   </g>
   <g id="patch_55">
    <path d="M 75.927575 169.559 
L 83.280925 169.559 
L 83.280925 169.559 
L 75.927575 169.559 
z
" clip-path="url(#p155d667805)" style="fill: #3e944f"/>
   </g>
   <g id="patch_56">
    <path d="M 90.634275 169.559 
L 97.987625 169.559 
L 97.987625 169.559 
L 90.634275 169.559 
z
" clip-path="url(#p155d667805)" style="fill: #3e944f"/>
   </g>
   <g id="patch_57">
    <path d="M 105.340975 169.559 
L 112.694325 169.559 
L 112.694325 169.559 
L 105.340975 169.559 
z
" clip-path="url(#p155d667805)" style="fill: #3e944f"/>
   </g>
   <g id="patch_58">
    <path d="M 120.047675 169.559 
L 127.401025 169.559 
L 127.401025 169.559 
L 120.047675 169.559 
z
" clip-path="url(#p155d667805)" style="fill: #3e944f"/>
   </g>
   <g id="patch_59">
    <path d="M 134.754375 27.182762 
L 142.107725 27.182762 
L 142.107725 27.10149 
L 134.754375 27.10149 
z
" clip-path="url(#p155d667805)" style="fill: #3e944f"/>
   </g>
   <g id="patch_60">
    <path d="M 149.461075 27.763671 
L 156.814425 27.763671 
L 156.814425 27.581664 
L 149.461075 27.581664 
z
" clip-path="url(#p155d667805)" style="fill: #3e944f"/>
   </g>
   <g id="patch_61">
    <path d="M 164.167775 28.329954 
L 171.521125 28.329954 
L 171.521125 28.153214 
L 164.167775 28.153214 
z
" clip-path="url(#p155d667805)" style="fill: #3e944f"/>
   </g>
   <g id="patch_62">
    <path d="M 178.874475 27.982747 
L 186.227825 27.982747 
L 186.227825 27.755021 
L 178.874475 27.755021 
z
" clip-path="url(#p155d667805)" style="fill: #3e944f"/>
   </g>
   <g id="patch_63">
    <path d="M 193.581175 28.408236 
L 200.934525 28.408236 
L 200.934525 27.974297 
L 193.581175 27.974297 
z
" clip-path="url(#p155d667805)" style="fill: #3e944f"/>
   </g>
   <g id="patch_64">
    <path d="M 208.287875 28.762889 
L 215.641225 28.762889 
L 215.641225 28.212979 
L 208.287875 28.212979 
z
" clip-path="url(#p155d667805)" style="fill: #3e944f"/>
   </g>
   <g id="patch_65">
    <path d="M 222.994575 29.381171 
L 230.347925 29.381171 
L 230.347925 28.496613 
L 222.994575 28.496613 
z
" clip-path="url(#p155d667805)" style="fill: #3e944f"/>
   </g>
   <g id="patch_66">
    <path d="M 237.701275 30.399467 
L 245.054625 30.399467 
L 245.054625 29.243209 
L 237.701275 29.243209 
z
" clip-path="url(#p155d667805)" style="fill: #3e944f"/>
   </g>
   <g id="patch_67">
    <path d="M 252.407975 32.697933 
L 259.761325 32.697933 
L 259.761325 30.080759 
L 252.407975 30.080759 
z
" clip-path="url(#p155d667805)" style="fill: #3e944f"/>
   </g>
   <g id="patch_68">
    <path d="M 267.114675 35.848025 
L 274.468025 35.848025 
L 274.468025 30.671188 
L 267.114675 30.671188 
z
" clip-path="url(#p155d667805)" style="fill: #3e944f"/>
   </g>
   <g id="patch_69">
    <path d="M 281.821375 39.49021 
L 289.174725 39.49021 
L 289.174725 31.396182 
L 281.821375 31.396182 
z
" clip-path="url(#p155d667805)" style="fill: #3e944f"/>
   </g>
   <g id="patch_70">
    <path d="M 296.528075 42.620415 
L 303.881425 42.620415 
L 303.881425 32.27712 
L 296.528075 32.27712 
z
" clip-path="url(#p155d667805)" style="fill: #3e944f"/>
   </g>
   <g id="patch_71">
    <path d="M 311.234775 44.504955 
L 318.588125 44.504955 
L 318.588125 32.698224 
L 311.234775 32.698224 
z
" clip-path="url(#p155d667805)" style="fill: #3e944f"/>
   </g>
   <g id="patch_72">
    <path d="M 325.941475 46.412103 
L 333.294825 46.412103 
L 333.294825 32.951786 
L 325.941475 32.951786 
z
" clip-path="url(#p155d667805)" style="fill: #3e944f"/>
   </g>
   <g id="patch_73">
    <path d="M 340.648175 47.660667 
L 348.001525 47.660667 
L 348.001525 33.802179 
L 340.648175 33.802179 
z
" clip-path="url(#p155d667805)" style="fill: #3e944f"/>
   </g>
   <g id="patch_74">
    <path d="M 355.354875 50.349951 
L 362.708225 50.349951 
L 362.708225 33.344652 
L 355.354875 33.344652 
z
" clip-path="url(#p155d667805)" style="fill: #3e944f"/>
   </g>
   <g id="patch_75">
    <path d="M 370.061575 52.627456 
L 377.414925 52.627456 
L 377.414925 34.01157 
L 370.061575 34.01157 
z
" clip-path="url(#p155d667805)" style="fill: #3e944f"/>
   </g>
   <g id="patch_76">
    <path d="M 384.768275 60.675416 
L 392.121625 60.675416 
L 392.121625 40.280113 
L 384.768275 40.280113 
z
" clip-path="url(#p155d667805)" style="fill: #3e944f"/>
   </g>
   <g id="patch_77">
    <path d="M 399.474975 67.058925 
L 406.828325 67.058925 
L 406.828325 45.488764 
L 399.474975 45.488764 
z
" clip-path="url(#p155d667805)" style="fill: #3e944f"/>
   </g>
   <g id="patch_78">
    <path d="M 46.514175 27.14516 
L 53.867525 27.14516 
L 53.867525 27.0932 
L 46.514175 27.0932 
z
" clip-path="url(#p155d667805)" style="fill: #707070"/>
   </g>
   <g id="patch_79">
    <path d="M 61.220875 27.1194 
L 68.574225 27.1194 
L 68.574225 27.0932 
L 61.220875 27.0932 
z
" clip-path="url(#p155d667805)" style="fill: #707070"/>
   </g>
   <g id="patch_80">
    <path d="M 75.927575 27.103493 
L 83.280925 27.103493 
L 83.280925 27.0932 
L 75.927575 27.0932 
z
" clip-path="url(#p155d667805)" style="fill: #707070"/>
   </g>
   <g id="patch_81">
    <path d="M 90.634275 27.093438 
L 97.987625 27.093438 
L 97.987625 27.0932 
L 90.634275 27.0932 
z
" clip-path="url(#p155d667805)" style="fill: #707070"/>
   </g>
   <g id="patch_82">
    <path d="M 105.340975 27.093228 
L 112.694325 27.093228 
L 112.694325 27.0932 
L 105.340975 27.0932 
z
" clip-path="url(#p155d667805)" style="fill: #707070"/>
   </g>
   <g id="patch_83">
    <path d="M 120.047675 27.093247 
L 127.401025 27.093247 
L 127.401025 27.0932 
L 120.047675 27.0932 
z
" clip-path="url(#p155d667805)" style="fill: #707070"/>
   </g>
   <g id="patch_84">
    <path d="M 134.754375 27.10149 
L 142.107725 27.10149 
L 142.107725 27.0932 
L 134.754375 27.0932 
z
" clip-path="url(#p155d667805)" style="fill: #707070"/>
   </g>
   <g id="patch_85">
    <path d="M 149.461075 27.581664 
L 156.814425 27.581664 
L 156.814425 27.0932 
L 149.461075 27.0932 
z
" clip-path="url(#p155d667805)" style="fill: #707070"/>
   </g>
   <g id="patch_86">
    <path d="M 164.167775 28.153214 
L 171.521125 28.153214 
L 171.521125 27.0932 
L 164.167775 27.0932 
z
" clip-path="url(#p155d667805)" style="fill: #707070"/>
   </g>
   <g id="patch_87">
    <path d="M 178.874475 27.755021 
L 186.227825 27.755021 
L 186.227825 27.0932 
L 178.874475 27.0932 
z
" clip-path="url(#p155d667805)" style="fill: #707070"/>
   </g>
   <g id="patch_88">
    <path d="M 193.581175 27.974297 
L 200.934525 27.974297 
L 200.934525 27.0932 
L 193.581175 27.0932 
z
" clip-path="url(#p155d667805)" style="fill: #707070"/>
   </g>
   <g id="patch_89">
    <path d="M 208.287875 28.212979 
L 215.641225 28.212979 
L 215.641225 27.0932 
L 208.287875 27.0932 
z
" clip-path="url(#p155d667805)" style="fill: #707070"/>
   </g>
   <g id="patch_90">
    <path d="M 222.994575 28.496613 
L 230.347925 28.496613 
L 230.347925 27.0932 
L 222.994575 27.0932 
z
" clip-path="url(#p155d667805)" style="fill: #707070"/>
   </g>
   <g id="patch_91">
    <path d="M 237.701275 29.243209 
L 245.054625 29.243209 
L 245.054625 27.0932 
L 237.701275 27.0932 
z
" clip-path="url(#p155d667805)" style="fill: #707070"/>
   </g>
   <g id="patch_92">
    <path d="M 252.407975 30.080759 
L 259.761325 30.080759 
L 259.761325 27.0932 
L 252.407975 27.0932 
z
" clip-path="url(#p155d667805)" style="fill: #707070"/>
   </g>
   <g id="patch_93">
    <path d="M 267.114675 30.671188 
L 274.468025 30.671188 
L 274.468025 27.095178 
L 267.114675 27.095178 
z
" clip-path="url(#p155d667805)" style="fill: #707070"/>
   </g>
   <g id="patch_94">
    <path d="M 281.821375 31.396182 
L 289.174725 31.396182 
L 289.174725 27.09755 
L 281.821375 27.09755 
z
" clip-path="url(#p155d667805)" style="fill: #707070"/>
   </g>
   <g id="patch_95">
    <path d="M 296.528075 32.27712 
L 303.881425 32.27712 
L 303.881425 27.247701 
L 296.528075 27.247701 
z
" clip-path="url(#p155d667805)" style="fill: #707070"/>
   </g>
   <g id="patch_96">
    <path d="M 311.234775 32.698224 
L 318.588125 32.698224 
L 318.588125 27.781119 
L 311.234775 27.781119 
z
" clip-path="url(#p155d667805)" style="fill: #707070"/>
   </g>
   <g id="patch_97">
    <path d="M 325.941475 32.951786 
L 333.294825 32.951786 
L 333.294825 28.198608 
L 325.941475 28.198608 
z
" clip-path="url(#p155d667805)" style="fill: #707070"/>
   </g>
   <g id="patch_98">
    <path d="M 340.648175 33.802179 
L 348.001525 33.802179 
L 348.001525 28.484704 
L 340.648175 28.484704 
z
" clip-path="url(#p155d667805)" style="fill: #707070"/>
   </g>
   <g id="patch_99">
    <path d="M 355.354875 33.344652 
L 362.708225 33.344652 
L 362.708225 29.204264 
L 355.354875 29.204264 
z
" clip-path="url(#p155d667805)" style="fill: #707070"/>
   </g>
   <g id="patch_100">
    <path d="M 370.061575 34.01157 
L 377.414925 34.01157 
L 377.414925 30.301472 
L 370.061575 30.301472 
z
" clip-path="url(#p155d667805)" style="fill: #707070"/>
   </g>
   <g id="patch_101">
    <path d="M 384.768275 40.280113 
L 392.121625 40.280113 
L 392.121625 36.82791 
L 384.768275 36.82791 
z
" clip-path="url(#p155d667805)" style="fill: #707070"/>
   </g>
   <g id="patch_102">
    <path d="M 399.474975 45.488764 
L 406.828325 45.488764 
L 406.828325 42.068219 
L 399.474975 42.068219 
z
" clip-path="url(#p155d667805)" style="fill: #707070"/>
   </g>
   <g id="patch_103">
    <path d="M 46.514175 169.559 
L 53.867525 169.559 
L 53.867525 169.559 
L 46.514175 169.559 
z
" clip-path="url(#p155d667805)" style="fill: #ffc738"/>
   </g>
   <g id="patch_104">
    <path d="M 61.220875 169.559 
L 68.574225 169.559 
L 68.574225 169.559 
L 61.220875 169.559 
z
" clip-path="url(#p155d667805)" style="fill: #ffc738"/>
   </g>
   <g id="patch_105">
    <path d="M 75.927575 169.559 
L 83.280925 169.559 
L 83.280925 169.559 
L 75.927575 169.559 
z
" clip-path="url(#p155d667805)" style="fill: #ffc738"/>
   </g>
   <g id="patch_106">
    <path d="M 90.634275 169.559 
L 97.987625 169.559 
L 97.987625 169.559 
L 90.634275 169.559 
z
" clip-path="url(#p155d667805)" style="fill: #ffc738"/>
   </g>
   <g id="patch_107">
    <path d="M 105.340975 169.559 
L 112.694325 169.559 
L 112.694325 169.559 
L 105.340975 169.559 
z
" clip-path="url(#p155d667805)" style="fill: #ffc738"/>
   </g>
   <g id="patch_108">
    <path d="M 120.047675 169.559 
L 127.401025 169.559 
L 127.401025 169.559 
L 120.047675 169.559 
z
" clip-path="url(#p155d667805)" style="fill: #ffc738"/>
   </g>
   <g id="patch_109">
    <path d="M 134.754375 169.559 
L 142.107725 169.559 
L 142.107725 169.559 
L 134.754375 169.559 
z
" clip-path="url(#p155d667805)" style="fill: #ffc738"/>
   </g>
   <g id="patch_110">
    <path d="M 149.461075 169.559 
L 156.814425 169.559 
L 156.814425 169.559 
L 149.461075 169.559 
z
" clip-path="url(#p155d667805)" style="fill: #ffc738"/>
   </g>
   <g id="patch_111">
    <path d="M 164.167775 169.559 
L 171.521125 169.559 
L 171.521125 169.559 
L 164.167775 169.559 
z
" clip-path="url(#p155d667805)" style="fill: #ffc738"/>
   </g>
   <g id="patch_112">
    <path d="M 178.874475 169.559 
L 186.227825 169.559 
L 186.227825 169.559 
L 178.874475 169.559 
z
" clip-path="url(#p155d667805)" style="fill: #ffc738"/>
   </g>
   <g id="patch_113">
    <path d="M 193.581175 169.559 
L 200.934525 169.559 
L 200.934525 169.559 
L 193.581175 169.559 
z
" clip-path="url(#p155d667805)" style="fill: #ffc738"/>
   </g>
   <g id="patch_114">
    <path d="M 208.287875 169.559 
L 215.641225 169.559 
L 215.641225 169.559 
L 208.287875 169.559 
z
" clip-path="url(#p155d667805)" style="fill: #ffc738"/>
   </g>
   <g id="patch_115">
    <path d="M 222.994575 169.559 
L 230.347925 169.559 
L 230.347925 169.559 
L 222.994575 169.559 
z
" clip-path="url(#p155d667805)" style="fill: #ffc738"/>
   </g>
   <g id="patch_116">
    <path d="M 237.701275 169.559 
L 245.054625 169.559 
L 245.054625 169.559 
L 237.701275 169.559 
z
" clip-path="url(#p155d667805)" style="fill: #ffc738"/>
   </g>
   <g id="patch_117">
    <path d="M 252.407975 169.559 
L 259.761325 169.559 
L 259.761325 169.559 
L 252.407975 169.559 
z
" clip-path="url(#p155d667805)" style="fill: #ffc738"/>
   </g>
   <g id="patch_118">
    <path d="M 267.114675 27.095178 
L 274.468025 27.095178 
L 274.468025 27.0932 
L 267.114675 27.0932 
z
" clip-path="url(#p155d667805)" style="fill: #ffc738"/>
   </g>
   <g id="patch_119">
    <path d="M 281.821375 27.09755 
L 289.174725 27.09755 
L 289.174725 27.0932 
L 281.821375 27.0932 
z
" clip-path="url(#p155d667805)" style="fill: #ffc738"/>
   </g>
   <g id="patch_120">
    <path d="M 296.528075 27.247701 
L 303.881425 27.247701 
L 303.881425 27.0932 
L 296.528075 27.0932 
z
" clip-path="url(#p155d667805)" style="fill: #ffc738"/>
   </g>
   <g id="patch_121">
    <path d="M 311.234775 27.781119 
L 318.588125 27.781119 
L 318.588125 27.0932 
L 311.234775 27.0932 
z
" clip-path="url(#p155d667805)" style="fill: #ffc738"/>
   </g>
   <g id="patch_122">
    <path d="M 325.941475 28.198608 
L 333.294825 28.198608 
L 333.294825 27.0932 
L 325.941475 27.0932 
z
" clip-path="url(#p155d667805)" style="fill: #ffc738"/>
   </g>
   <g id="patch_123">
    <path d="M 340.648175 28.484704 
L 348.001525 28.484704 
L 348.001525 27.0932 
L 340.648175 27.0932 
z
" clip-path="url(#p155d667805)" style="fill: #ffc738"/>
   </g>
   <g id="patch_124">
    <path d="M 355.354875 29.204264 
L 362.708225 29.204264 
L 362.708225 27.0932 
L 355.354875 27.0932 
z
" clip-path="url(#p155d667805)" style="fill: #ffc738"/>
   </g>
   <g id="patch_125">
    <path d="M 370.061575 30.301472 
L 377.414925 30.301472 
L 377.414925 27.0932 
L 370.061575 27.0932 
z
" clip-path="url(#p155d667805)" style="fill: #ffc738"/>
   </g>
   <g id="patch_126">
    <path d="M 384.768275 36.82791 
L 392.121625 36.82791 
L 392.121625 27.0932 
L 384.768275 27.0932 
z
" clip-path="url(#p155d667805)" style="fill: #ffc738"/>
   </g>
   <g id="patch_127">
    <path d="M 399.474975 42.068219 
L 406.828325 42.068219 
L 406.828325 27.0932 
L 399.474975 27.0932 
z
" clip-path="url(#p155d667805)" style="fill: #ffc738"/>
   </g>
   <g id="patch_128">
    <path d="M 42.8375 169.559 
L 42.8375 27.0932 
" style="fill: none; stroke: #000000; stroke-width: 0.8; stroke-linejoin: miter; stroke-linecap: square"/>
   </g>
   <g id="patch_129">
    <path d="M 42.8375 169.559 
L 410.505 169.559 
" style="fill: none; stroke: #000000; stroke-width: 0.8; stroke-linejoin: miter; stroke-linecap: square"/>
   </g>
   <g id="legend_1">
    <g id="patch_130">
     <path d="M 49.803125 21.139067 
L 65.803125 21.139067 
L 65.803125 15.539067 
L 49.803125 15.539067 
z
" style="fill: #3867ff"/>
    </g>
    <g id="text_34">
     <!-- Hidráulica -->
     <g transform="translate(72.203125 21.139067) scale(0.08 -0.08)">
      <defs>
       <path id="DejaVuSerif-48" d="M 353 0 
L 353 331 
L 947 331 
L 947 4331 
L 353 4331 
L 353 4666 
L 2175 4666 
L 2175 4331 
L 1581 4331 
L 1581 2719 
L 4000 2719 
L 4000 4331 
L 3406 4331 
L 3406 4666 
L 5228 4666 
L 5228 4331 
L 4634 4331 
L 4634 331 
L 5228 331 
L 5228 0 
L 3406 0 
L 3406 331 
L 4000 331 
L 4000 2338 
L 1581 2338 
L 1581 331 
L 2175 331 
L 2175 0 
L 353 0 
z
" transform="scale(0.015625)"/>
       <path id="DejaVuSerif-64" d="M 3359 331 
L 3909 331 
L 3909 0 
L 2784 0 
L 2784 519 
Q 2616 206 2355 57 
Q 2094 -91 1709 -91 
Q 1097 -91 708 395 
Q 319 881 319 1663 
Q 319 2444 706 2928 
Q 1094 3413 1709 3413 
Q 2094 3413 2355 3264 
Q 2616 3116 2784 2803 
L 2784 4531 
L 2241 4531 
L 2241 4863 
L 3359 4863 
L 3359 331 
z
M 2784 1497 
L 2784 1825 
Q 2784 2422 2554 2737 
Q 2325 3053 1888 3053 
Q 1444 3053 1217 2703 
Q 991 2353 991 1663 
Q 991 975 1217 622 
Q 1444 269 1888 269 
Q 2325 269 2554 583 
Q 2784 897 2784 1497 
z
" transform="scale(0.015625)"/>
       <path id="DejaVuSerif-e1" d="M 2547 1044 
L 2547 1747 
L 1806 1747 
Q 1378 1747 1168 1562 
Q 959 1378 959 997 
Q 959 650 1171 447 
Q 1384 244 1747 244 
Q 2106 244 2326 466 
Q 2547 688 2547 1044 
z
M 3122 2075 
L 3122 331 
L 3634 331 
L 3634 0 
L 2547 0 
L 2547 359 
Q 2356 128 2106 18 
Q 1856 -91 1522 -91 
Q 969 -91 644 203 
Q 319 497 319 997 
Q 319 1513 691 1797 
Q 1063 2081 1741 2081 
L 2547 2081 
L 2547 2309 
Q 2547 2688 2317 2895 
Q 2088 3103 1672 3103 
Q 1328 3103 1125 2947 
Q 922 2791 872 2484 
L 575 2484 
L 575 3156 
Q 875 3284 1158 3348 
Q 1441 3413 1709 3413 
Q 2400 3413 2761 3070 
Q 3122 2728 3122 2075 
z
M 2210 5119 
L 2832 5119 
L 1770 3944 
L 1404 3944 
L 2210 5119 
z
" transform="scale(0.015625)"/>
       <path id="DejaVuSerif-75" d="M 2266 3322 
L 3341 3322 
L 3341 331 
L 3884 331 
L 3884 0 
L 2766 0 
L 2766 588 
Q 2606 256 2353 82 
Q 2100 -91 1766 -91 
Q 1213 -91 952 223 
Q 691 538 691 1209 
L 691 2988 
L 172 2988 
L 172 3322 
L 1269 3322 
L 1269 1388 
Q 1269 781 1417 556 
Q 1566 331 1947 331 
Q 2347 331 2556 625 
Q 2766 919 2766 1478 
L 2766 2988 
L 2266 2988 
L 2266 3322 
z
" transform="scale(0.015625)"/>
      </defs>
      <use xlink:href="#DejaVuSerif-48"/>
      <use xlink:href="#DejaVuSerif-69" x="87.207031"/>
      <use xlink:href="#DejaVuSerif-64" x="119.189453"/>
      <use xlink:href="#DejaVuSerif-72" x="183.203125"/>
      <use xlink:href="#DejaVuSerif-e1" x="231.005859"/>
      <use xlink:href="#DejaVuSerif-75" x="290.625"/>
      <use xlink:href="#DejaVuSerif-6c" x="355.029297"/>
      <use xlink:href="#DejaVuSerif-69" x="387.011719"/>
      <use xlink:href="#DejaVuSerif-63" x="418.994141"/>
      <use xlink:href="#DejaVuSerif-61" x="475"/>
     </g>
    </g>
    <g id="patch_131">
     <path d="M 130.973125 21.139067 
L 146.973125 21.139067 
L 146.973125 15.539067 
L 130.973125 15.539067 
z
" style="fill: #ff6038"/>
    </g>
    <g id="text_35">
     <!-- Térmica -->
     <g transform="translate(153.373125 21.139067) scale(0.08 -0.08)">
      <defs>
       <path id="DejaVuSerif-54" d="M 1222 0 
L 1222 331 
L 1819 331 
L 1819 4294 
L 447 4294 
L 447 3566 
L 63 3566 
L 63 4666 
L 4206 4666 
L 4206 3566 
L 3822 3566 
L 3822 4294 
L 2450 4294 
L 2450 331 
L 3047 331 
L 3047 0 
L 1222 0 
z
" transform="scale(0.015625)"/>
       <path id="DejaVuSerif-6d" d="M 3316 2675 
Q 3481 3041 3739 3227 
Q 3997 3413 4341 3413 
Q 4863 3413 5119 3089 
Q 5375 2766 5375 2113 
L 5375 331 
L 5894 331 
L 5894 0 
L 4300 0 
L 4300 331 
L 4800 331 
L 4800 2047 
Q 4800 2556 4650 2772 
Q 4500 2988 4153 2988 
Q 3769 2988 3567 2697 
Q 3366 2406 3366 1850 
L 3366 331 
L 3866 331 
L 3866 0 
L 2291 0 
L 2291 331 
L 2791 331 
L 2791 2069 
Q 2791 2566 2641 2777 
Q 2491 2988 2144 2988 
Q 1759 2988 1557 2697 
Q 1356 2406 1356 1850 
L 1356 331 
L 1856 331 
L 1856 0 
L 263 0 
L 263 331 
L 781 331 
L 781 2994 
L 231 2994 
L 231 3322 
L 1356 3322 
L 1356 2731 
Q 1516 3063 1762 3238 
Q 2009 3413 2322 3413 
Q 2709 3413 2968 3220 
Q 3228 3028 3316 2675 
z
" transform="scale(0.015625)"/>
      </defs>
      <use xlink:href="#DejaVuSerif-54"/>
      <use xlink:href="#DejaVuSerif-e9" x="58.949219"/>
      <use xlink:href="#DejaVuSerif-72" x="118.128906"/>
      <use xlink:href="#DejaVuSerif-6d" x="165.931641"/>
      <use xlink:href="#DejaVuSerif-69" x="260.755859"/>
      <use xlink:href="#DejaVuSerif-63" x="292.738281"/>
      <use xlink:href="#DejaVuSerif-61" x="348.744141"/>
     </g>
    </g>
    <g id="patch_132">
     <path d="M 202.043125 21.139067 
L 218.043125 21.139067 
L 218.043125 15.539067 
L 202.043125 15.539067 
z
" style="fill: #3e944f"/>
    </g>
    <g id="text_36">
     <!-- Eólica -->
     <g transform="translate(224.443125 21.139067) scale(0.08 -0.08)">
      <defs>
       <path id="DejaVuSerif-45" d="M 353 0 
L 353 331 
L 947 331 
L 947 4331 
L 353 4331 
L 353 4666 
L 4109 4666 
L 4109 3628 
L 3725 3628 
L 3725 4281 
L 1581 4281 
L 1581 2719 
L 3109 2719 
L 3109 3303 
L 3494 3303 
L 3494 1753 
L 3109 1753 
L 3109 2338 
L 1581 2338 
L 1581 384 
L 3775 384 
L 3775 1038 
L 4159 1038 
L 4159 0 
L 353 0 
z
" transform="scale(0.015625)"/>
      </defs>
      <use xlink:href="#DejaVuSerif-45"/>
      <use xlink:href="#DejaVuSerif-f3" x="72.998047"/>
      <use xlink:href="#DejaVuSerif-6c" x="133.203125"/>
      <use xlink:href="#DejaVuSerif-69" x="165.185547"/>
      <use xlink:href="#DejaVuSerif-63" x="197.167969"/>
      <use xlink:href="#DejaVuSerif-61" x="253.173828"/>
     </g>
    </g>
    <g id="patch_133">
     <path d="M 265.466875 21.139067 
L 281.466875 21.139067 
L 281.466875 15.539067 
L 265.466875 15.539067 
z
" style="fill: #707070"/>
    </g>
    <g id="text_37">
     <!-- Outras -->
     <g transform="translate(287.866875 21.139067) scale(0.08 -0.08)">
      <defs>
       <path id="DejaVuSerif-4f" d="M 2625 244 
Q 3391 244 3781 770 
Q 4172 1297 4172 2328 
Q 4172 3363 3781 3889 
Q 3391 4416 2625 4416 
Q 1856 4416 1465 3889 
Q 1075 3363 1075 2328 
Q 1075 1297 1465 770 
Q 1856 244 2625 244 
z
M 2625 -91 
Q 2150 -91 1751 65 
Q 1353 222 1050 525 
Q 700 875 529 1319 
Q 359 1763 359 2328 
Q 359 2894 529 3339 
Q 700 3784 1050 4134 
Q 1356 4441 1750 4595 
Q 2144 4750 2625 4750 
Q 3641 4750 4266 4084 
Q 4891 3419 4891 2328 
Q 4891 1769 4719 1320 
Q 4547 872 4197 525 
Q 3891 219 3497 64 
Q 3103 -91 2625 -91 
z
" transform="scale(0.015625)"/>
      </defs>
      <use xlink:href="#DejaVuSerif-4f"/>
      <use xlink:href="#DejaVuSerif-75" x="81.982422"/>
      <use xlink:href="#DejaVuSerif-74" x="146.386719"/>
      <use xlink:href="#DejaVuSerif-72" x="186.572266"/>
      <use xlink:href="#DejaVuSerif-61" x="234.375"/>
      <use xlink:href="#DejaVuSerif-73" x="293.994141"/>
     </g>
    </g>
    <g id="patch_134">
     <path d="M 331.491875 21.139067 
L 347.491875 21.139067 
L 347.491875 15.539067 
L 331.491875 15.539067 
z
" style="fill: #ffc738"/>
    </g>
    <g id="text_38">
     <!-- Fotovoltaica -->
     <g transform="translate(353.891875 21.139067) scale(0.08 -0.08)">
      <defs>
       <path id="DejaVuSerif-46" d="M 353 0 
L 353 331 
L 947 331 
L 947 4331 
L 353 4331 
L 353 4666 
L 4172 4666 
L 4172 3628 
L 3788 3628 
L 3788 4281 
L 1581 4281 
L 1581 2719 
L 3175 2719 
L 3175 3303 
L 3559 3303 
L 3559 1753 
L 3175 1753 
L 3175 2338 
L 1581 2338 
L 1581 331 
L 2328 331 
L 2328 0 
L 353 0 
z
" transform="scale(0.015625)"/>
       <path id="DejaVuSerif-76" d="M 1581 0 
L 359 2988 
L -19 2988 
L -19 3322 
L 1509 3322 
L 1509 2988 
L 978 2988 
L 1913 703 
L 2847 2988 
L 2350 2988 
L 2350 3322 
L 3597 3322 
L 3597 2988 
L 3225 2988 
L 2003 0 
L 1581 0 
z
" transform="scale(0.015625)"/>
      </defs>
      <use xlink:href="#DejaVuSerif-46"/>
      <use xlink:href="#DejaVuSerif-6f" x="63.884766"/>
      <use xlink:href="#DejaVuSerif-74" x="124.089844"/>
      <use xlink:href="#DejaVuSerif-6f" x="164.275391"/>
      <use xlink:href="#DejaVuSerif-76" x="224.480469"/>
      <use xlink:href="#DejaVuSerif-6f" x="280.974609"/>
      <use xlink:href="#DejaVuSerif-6c" x="341.179688"/>
      <use xlink:href="#DejaVuSerif-74" x="373.162109"/>
      <use xlink:href="#DejaVuSerif-61" x="413.347656"/>
      <use xlink:href="#DejaVuSerif-69" x="472.966797"/>
      <use xlink:href="#DejaVuSerif-63" x="504.949219"/>
      <use xlink:href="#DejaVuSerif-61" x="560.955078"/>
     </g>
    </g>
   </g>
  </g>
 </g>
 <defs>
  <clipPath id="p155d667805">
   <rect x="42.8375" y="27.0932" width="367.6675" height="142.4658"/>
  </clipPath>
 </defs>
</svg>
