<?xml version="1.0" encoding="utf-8" standalone="no"?>
<!DOCTYPE svg PUBLIC "-//W3C//DTD SVG 1.1//EN"
  "http://www.w3.org/Graphics/SVG/1.1/DTD/svg11.dtd">
<svg xmlns:xlink="http://www.w3.org/1999/xlink" width="432pt" height="216pt" viewBox="0 0 432 216" xmlns="http://www.w3.org/2000/svg" version="1.1">
 <metadata>
  <rdf:RDF xmlns:dc="http://purl.org/dc/elements/1.1/" xmlns:cc="http://creativecommons.org/ns#" xmlns:rdf="http://www.w3.org/1999/02/22-rdf-syntax-ns#">
   <cc:Work>
    <dc:type rdf:resource="http://purl.org/dc/dcmitype/StillImage"/>
    <dc:date>2025-01-14T00:31:17.958498</dc:date>
    <dc:format>image/svg+xml</dc:format>
    <dc:creator>
     <cc:Agent>
      <dc:title>Matplotlib v3.9.2, https://matplotlib.org/</dc:title>
     </cc:Agent>
    </dc:creator>
   </cc:Work>
  </rdf:RDF>
 </metadata>
 <defs>
  <style type="text/css">*{stroke-linejoin: round; stroke-linecap: butt}</style>
 </defs>
 <g id="figure_1">
  <g id="patch_1">
   <path d="M 0 216 
L 432 216 
L 432 0 
L 0 0 
L 0 216 
z
" style="fill: none"/>
  </g>
  <g id="axes_1">
   <g id="patch_2">
    <path d="M 37.7075 169.559 
L 423.36 169.559 
L 423.36 27.0932 
L 37.7075 27.0932 
L 37.7075 169.559 
z
" style="fill: none"/>
   </g>
   <g id="matplotlib.axis_1">
    <g id="xtick_1">
     <g id="line2d_1">
      <path d="M 45.42055 169.559 
L 45.42055 27.0932 
" clip-path="url(#pc756ebd4d5)" style="fill: none; stroke-dasharray: 2.96,1.28; stroke-dashoffset: 0; stroke: #b0b0b0; stroke-opacity: 0.5; stroke-width: 0.8"/>
     </g>
     <g id="line2d_2">
      <defs>
       <path id="m0ef211e763" d="M 0 0 
L 0 3.5 
" style="stroke: #000000; stroke-width: 0.8"/>
      </defs>
      <g>
       <use xlink:href="#m0ef211e763" x="45.42055" y="169.559" style="stroke: #000000; stroke-width: 0.8"/>
      </g>
     </g>
     <g id="text_1">
      <!-- 2000 -->
      <g transform="translate(29.847407 195.254019) rotate(-45) scale(0.08 -0.08)">
       <defs>
        <path id="DejaVuSerif-32" d="M 819 3553 
L 469 3553 
L 469 4384 
Q 803 4563 1142 4656 
Q 1481 4750 1806 4750 
Q 2534 4750 2956 4397 
Q 3378 4044 3378 3438 
Q 3378 2753 2422 1800 
Q 2347 1728 2309 1691 
L 1131 513 
L 3078 513 
L 3078 1088 
L 3444 1088 
L 3444 0 
L 434 0 
L 434 341 
L 1850 1753 
Q 2319 2222 2519 2614 
Q 2719 3006 2719 3438 
Q 2719 3909 2473 4175 
Q 2228 4441 1797 4441 
Q 1350 4441 1106 4219 
Q 863 3997 819 3553 
z
" transform="scale(0.015625)"/>
        <path id="DejaVuSerif-30" d="M 2034 219 
Q 2513 219 2750 744 
Q 2988 1269 2988 2328 
Q 2988 3391 2750 3916 
Q 2513 4441 2034 4441 
Q 1556 4441 1318 3916 
Q 1081 3391 1081 2328 
Q 1081 1269 1318 744 
Q 1556 219 2034 219 
z
M 2034 -91 
Q 1275 -91 848 546 
Q 422 1184 422 2328 
Q 422 3475 848 4112 
Q 1275 4750 2034 4750 
Q 2797 4750 3222 4112 
Q 3647 3475 3647 2328 
Q 3647 1184 3222 546 
Q 2797 -91 2034 -91 
z
" transform="scale(0.015625)"/>
       </defs>
       <use xlink:href="#DejaVuSerif-32"/>
       <use xlink:href="#DejaVuSerif-30" x="63.623047"/>
       <use xlink:href="#DejaVuSerif-30" x="127.246094"/>
       <use xlink:href="#DejaVuSerif-30" x="190.869141"/>
      </g>
     </g>
    </g>
    <g id="xtick_2">
     <g id="line2d_3">
      <path d="M 60.84665 169.559 
L 60.84665 27.0932 
" clip-path="url(#pc756ebd4d5)" style="fill: none; stroke-dasharray: 2.96,1.28; stroke-dashoffset: 0; stroke: #b0b0b0; stroke-opacity: 0.5; stroke-width: 0.8"/>
     </g>
     <g id="line2d_4">
      <g>
       <use xlink:href="#m0ef211e763" x="60.84665" y="169.559" style="stroke: #000000; stroke-width: 0.8"/>
      </g>
     </g>
     <g id="text_2">
      <!-- 2001 -->
      <g transform="translate(45.273507 195.254019) rotate(-45) scale(0.08 -0.08)">
       <defs>
        <path id="DejaVuSerif-31" d="M 909 0 
L 909 331 
L 1722 331 
L 1722 4213 
L 781 3603 
L 781 4013 
L 1919 4750 
L 2350 4750 
L 2350 331 
L 3163 331 
L 3163 0 
L 909 0 
z
" transform="scale(0.015625)"/>
       </defs>
       <use xlink:href="#DejaVuSerif-32"/>
       <use xlink:href="#DejaVuSerif-30" x="63.623047"/>
       <use xlink:href="#DejaVuSerif-30" x="127.246094"/>
       <use xlink:href="#DejaVuSerif-31" x="190.869141"/>
      </g>
     </g>
    </g>
    <g id="xtick_3">
     <g id="line2d_5">
      <path d="M 76.27275 169.559 
L 76.27275 27.0932 
" clip-path="url(#pc756ebd4d5)" style="fill: none; stroke-dasharray: 2.96,1.28; stroke-dashoffset: 0; stroke: #b0b0b0; stroke-opacity: 0.5; stroke-width: 0.8"/>
     </g>
     <g id="line2d_6">
      <g>
       <use xlink:href="#m0ef211e763" x="76.27275" y="169.559" style="stroke: #000000; stroke-width: 0.8"/>
      </g>
     </g>
     <g id="text_3">
      <!-- 2002 -->
      <g transform="translate(60.699607 195.254019) rotate(-45) scale(0.08 -0.08)">
       <use xlink:href="#DejaVuSerif-32"/>
       <use xlink:href="#DejaVuSerif-30" x="63.623047"/>
       <use xlink:href="#DejaVuSerif-30" x="127.246094"/>
       <use xlink:href="#DejaVuSerif-32" x="190.869141"/>
      </g>
     </g>
    </g>
    <g id="xtick_4">
     <g id="line2d_7">
      <path d="M 91.69885 169.559 
L 91.69885 27.0932 
" clip-path="url(#pc756ebd4d5)" style="fill: none; stroke-dasharray: 2.96,1.28; stroke-dashoffset: 0; stroke: #b0b0b0; stroke-opacity: 0.5; stroke-width: 0.8"/>
     </g>
     <g id="line2d_8">
      <g>
       <use xlink:href="#m0ef211e763" x="91.69885" y="169.559" style="stroke: #000000; stroke-width: 0.8"/>
      </g>
     </g>
     <g id="text_4">
      <!-- 2003 -->
      <g transform="translate(76.125707 195.254019) rotate(-45) scale(0.08 -0.08)">
       <defs>
        <path id="DejaVuSerif-33" d="M 622 4469 
Q 988 4606 1323 4678 
Q 1659 4750 1953 4750 
Q 2638 4750 3022 4454 
Q 3406 4159 3406 3634 
Q 3406 3213 3140 2930 
Q 2875 2647 2388 2547 
Q 2963 2466 3280 2130 
Q 3597 1794 3597 1259 
Q 3597 606 3158 257 
Q 2719 -91 1894 -91 
Q 1528 -91 1179 -12 
Q 831 66 488 225 
L 488 1131 
L 838 1131 
Q 869 681 1141 450 
Q 1413 219 1906 219 
Q 2384 219 2661 495 
Q 2938 772 2938 1253 
Q 2938 1803 2653 2086 
Q 2369 2369 1819 2369 
L 1522 2369 
L 1522 2688 
L 1678 2688 
Q 2225 2688 2498 2914 
Q 2772 3141 2772 3597 
Q 2772 4006 2547 4223 
Q 2322 4441 1900 4441 
Q 1478 4441 1245 4241 
Q 1013 4041 972 3647 
L 622 3647 
L 622 4469 
z
" transform="scale(0.015625)"/>
       </defs>
       <use xlink:href="#DejaVuSerif-32"/>
       <use xlink:href="#DejaVuSerif-30" x="63.623047"/>
       <use xlink:href="#DejaVuSerif-30" x="127.246094"/>
       <use xlink:href="#DejaVuSerif-33" x="190.869141"/>
      </g>
     </g>
    </g>
    <g id="xtick_5">
     <g id="line2d_9">
      <path d="M 107.12495 169.559 
L 107.12495 27.0932 
" clip-path="url(#pc756ebd4d5)" style="fill: none; stroke-dasharray: 2.96,1.28; stroke-dashoffset: 0; stroke: #b0b0b0; stroke-opacity: 0.5; stroke-width: 0.8"/>
     </g>
     <g id="line2d_10">
      <g>
       <use xlink:href="#m0ef211e763" x="107.12495" y="169.559" style="stroke: #000000; stroke-width: 0.8"/>
      </g>
     </g>
     <g id="text_5">
      <!-- 2004 -->
      <g transform="translate(91.551807 195.254019) rotate(-45) scale(0.08 -0.08)">
       <defs>
        <path id="DejaVuSerif-34" d="M 2234 1581 
L 2234 4063 
L 641 1581 
L 2234 1581 
z
M 3609 0 
L 1484 0 
L 1484 331 
L 2234 331 
L 2234 1247 
L 197 1247 
L 197 1588 
L 2241 4750 
L 2859 4750 
L 2859 1581 
L 3750 1581 
L 3750 1247 
L 2859 1247 
L 2859 331 
L 3609 331 
L 3609 0 
z
" transform="scale(0.015625)"/>
       </defs>
       <use xlink:href="#DejaVuSerif-32"/>
       <use xlink:href="#DejaVuSerif-30" x="63.623047"/>
       <use xlink:href="#DejaVuSerif-30" x="127.246094"/>
       <use xlink:href="#DejaVuSerif-34" x="190.869141"/>
      </g>
     </g>
    </g>
    <g id="xtick_6">
     <g id="line2d_11">
      <path d="M 122.55105 169.559 
L 122.55105 27.0932 
" clip-path="url(#pc756ebd4d5)" style="fill: none; stroke-dasharray: 2.96,1.28; stroke-dashoffset: 0; stroke: #b0b0b0; stroke-opacity: 0.5; stroke-width: 0.8"/>
     </g>
     <g id="line2d_12">
      <g>
       <use xlink:href="#m0ef211e763" x="122.55105" y="169.559" style="stroke: #000000; stroke-width: 0.8"/>
      </g>
     </g>
     <g id="text_6">
      <!-- 2005 -->
      <g transform="translate(106.977907 195.254019) rotate(-45) scale(0.08 -0.08)">
       <defs>
        <path id="DejaVuSerif-35" d="M 3219 4666 
L 3219 4153 
L 1081 4153 
L 1081 2816 
Q 1244 2928 1461 2984 
Q 1678 3041 1947 3041 
Q 2703 3041 3140 2622 
Q 3578 2203 3578 1478 
Q 3578 738 3136 323 
Q 2694 -91 1894 -91 
Q 1572 -91 1234 -12 
Q 897 66 544 225 
L 544 1131 
L 897 1131 
Q 925 688 1179 453 
Q 1434 219 1894 219 
Q 2388 219 2653 544 
Q 2919 869 2919 1478 
Q 2919 2084 2655 2407 
Q 2391 2731 1894 2731 
Q 1613 2731 1398 2631 
Q 1184 2531 1019 2322 
L 750 2322 
L 750 4666 
L 3219 4666 
z
" transform="scale(0.015625)"/>
       </defs>
       <use xlink:href="#DejaVuSerif-32"/>
       <use xlink:href="#DejaVuSerif-30" x="63.623047"/>
       <use xlink:href="#DejaVuSerif-30" x="127.246094"/>
       <use xlink:href="#DejaVuSerif-35" x="190.869141"/>
      </g>
     </g>
    </g>
    <g id="xtick_7">
     <g id="line2d_13">
      <path d="M 137.97715 169.559 
L 137.97715 27.0932 
" clip-path="url(#pc756ebd4d5)" style="fill: none; stroke-dasharray: 2.96,1.28; stroke-dashoffset: 0; stroke: #b0b0b0; stroke-opacity: 0.5; stroke-width: 0.8"/>
     </g>
     <g id="line2d_14">
      <g>
       <use xlink:href="#m0ef211e763" x="137.97715" y="169.559" style="stroke: #000000; stroke-width: 0.8"/>
      </g>
     </g>
     <g id="text_7">
      <!-- 2006 -->
      <g transform="translate(122.404007 195.254019) rotate(-45) scale(0.08 -0.08)">
       <defs>
        <path id="DejaVuSerif-36" d="M 2094 219 
Q 2534 219 2771 542 
Q 3009 866 3009 1472 
Q 3009 2078 2771 2401 
Q 2534 2725 2094 2725 
Q 1647 2725 1412 2412 
Q 1178 2100 1178 1509 
Q 1178 888 1415 553 
Q 1653 219 2094 219 
z
M 1075 2569 
Q 1288 2803 1556 2918 
Q 1825 3034 2163 3034 
Q 2859 3034 3264 2615 
Q 3669 2197 3669 1472 
Q 3669 763 3233 336 
Q 2797 -91 2069 -91 
Q 1278 -91 853 498 
Q 428 1088 428 2181 
Q 428 3406 931 4078 
Q 1434 4750 2350 4750 
Q 2597 4750 2869 4703 
Q 3141 4656 3425 4563 
L 3425 3794 
L 3072 3794 
Q 3034 4109 2831 4275 
Q 2628 4441 2284 4441 
Q 1678 4441 1381 3981 
Q 1084 3522 1075 2569 
z
" transform="scale(0.015625)"/>
       </defs>
       <use xlink:href="#DejaVuSerif-32"/>
       <use xlink:href="#DejaVuSerif-30" x="63.623047"/>
       <use xlink:href="#DejaVuSerif-30" x="127.246094"/>
       <use xlink:href="#DejaVuSerif-36" x="190.869141"/>
      </g>
     </g>
    </g>
    <g id="xtick_8">
     <g id="line2d_15">
      <path d="M 153.40325 169.559 
L 153.40325 27.0932 
" clip-path="url(#pc756ebd4d5)" style="fill: none; stroke-dasharray: 2.96,1.28; stroke-dashoffset: 0; stroke: #b0b0b0; stroke-opacity: 0.5; stroke-width: 0.8"/>
     </g>
     <g id="line2d_16">
      <g>
       <use xlink:href="#m0ef211e763" x="153.40325" y="169.559" style="stroke: #000000; stroke-width: 0.8"/>
      </g>
     </g>
     <g id="text_8">
      <!-- 2007 -->
      <g transform="translate(137.830107 195.254019) rotate(-45) scale(0.08 -0.08)">
       <defs>
        <path id="DejaVuSerif-37" d="M 3609 4347 
L 1784 0 
L 1319 0 
L 3059 4153 
L 903 4153 
L 903 3578 
L 538 3578 
L 538 4666 
L 3609 4666 
L 3609 4347 
z
" transform="scale(0.015625)"/>
       </defs>
       <use xlink:href="#DejaVuSerif-32"/>
       <use xlink:href="#DejaVuSerif-30" x="63.623047"/>
       <use xlink:href="#DejaVuSerif-30" x="127.246094"/>
       <use xlink:href="#DejaVuSerif-37" x="190.869141"/>
      </g>
     </g>
    </g>
    <g id="xtick_9">
     <g id="line2d_17">
      <path d="M 168.82935 169.559 
L 168.82935 27.0932 
" clip-path="url(#pc756ebd4d5)" style="fill: none; stroke-dasharray: 2.96,1.28; stroke-dashoffset: 0; stroke: #b0b0b0; stroke-opacity: 0.5; stroke-width: 0.8"/>
     </g>
     <g id="line2d_18">
      <g>
       <use xlink:href="#m0ef211e763" x="168.82935" y="169.559" style="stroke: #000000; stroke-width: 0.8"/>
      </g>
     </g>
     <g id="text_9">
      <!-- 2008 -->
      <g transform="translate(153.256207 195.254019) rotate(-45) scale(0.08 -0.08)">
       <defs>
        <path id="DejaVuSerif-38" d="M 2981 1275 
Q 2981 1775 2732 2051 
Q 2484 2328 2034 2328 
Q 1584 2328 1336 2051 
Q 1088 1775 1088 1275 
Q 1088 772 1336 495 
Q 1584 219 2034 219 
Q 2484 219 2732 495 
Q 2981 772 2981 1275 
z
M 2853 3541 
Q 2853 3966 2637 4203 
Q 2422 4441 2034 4441 
Q 1650 4441 1433 4203 
Q 1216 3966 1216 3541 
Q 1216 3113 1433 2875 
Q 1650 2638 2034 2638 
Q 2422 2638 2637 2875 
Q 2853 3113 2853 3541 
z
M 2516 2484 
Q 3047 2413 3344 2092 
Q 3641 1772 3641 1275 
Q 3641 619 3225 264 
Q 2809 -91 2034 -91 
Q 1263 -91 845 264 
Q 428 619 428 1275 
Q 428 1772 725 2092 
Q 1022 2413 1556 2484 
Q 1084 2569 832 2842 
Q 581 3116 581 3541 
Q 581 4103 968 4426 
Q 1356 4750 2034 4750 
Q 2713 4750 3100 4426 
Q 3488 4103 3488 3541 
Q 3488 3116 3236 2842 
Q 2984 2569 2516 2484 
z
" transform="scale(0.015625)"/>
       </defs>
       <use xlink:href="#DejaVuSerif-32"/>
       <use xlink:href="#DejaVuSerif-30" x="63.623047"/>
       <use xlink:href="#DejaVuSerif-30" x="127.246094"/>
       <use xlink:href="#DejaVuSerif-38" x="190.869141"/>
      </g>
     </g>
    </g>
    <g id="xtick_10">
     <g id="line2d_19">
      <path d="M 184.25545 169.559 
L 184.25545 27.0932 
" clip-path="url(#pc756ebd4d5)" style="fill: none; stroke-dasharray: 2.96,1.28; stroke-dashoffset: 0; stroke: #b0b0b0; stroke-opacity: 0.5; stroke-width: 0.8"/>
     </g>
     <g id="line2d_20">
      <g>
       <use xlink:href="#m0ef211e763" x="184.25545" y="169.559" style="stroke: #000000; stroke-width: 0.8"/>
      </g>
     </g>
     <g id="text_10">
      <!-- 2009 -->
      <g transform="translate(168.682307 195.254019) rotate(-45) scale(0.08 -0.08)">
       <defs>
        <path id="DejaVuSerif-39" d="M 2994 2091 
Q 2784 1856 2512 1740 
Q 2241 1625 1900 1625 
Q 1206 1625 804 2044 
Q 403 2463 403 3188 
Q 403 3897 839 4323 
Q 1275 4750 2003 4750 
Q 2794 4750 3217 4161 
Q 3641 3572 3641 2478 
Q 3641 1253 3137 581 
Q 2634 -91 1722 -91 
Q 1475 -91 1203 -44 
Q 931 3 647 97 
L 647 872 
L 997 872 
Q 1038 556 1241 387 
Q 1444 219 1784 219 
Q 2391 219 2687 676 
Q 2984 1134 2994 2091 
z
M 1978 4441 
Q 1534 4441 1298 4117 
Q 1063 3794 1063 3188 
Q 1063 2581 1298 2256 
Q 1534 1931 1978 1931 
Q 2422 1931 2658 2245 
Q 2894 2559 2894 3150 
Q 2894 3772 2656 4106 
Q 2419 4441 1978 4441 
z
" transform="scale(0.015625)"/>
       </defs>
       <use xlink:href="#DejaVuSerif-32"/>
       <use xlink:href="#DejaVuSerif-30" x="63.623047"/>
       <use xlink:href="#DejaVuSerif-30" x="127.246094"/>
       <use xlink:href="#DejaVuSerif-39" x="190.869141"/>
      </g>
     </g>
    </g>
    <g id="xtick_11">
     <g id="line2d_21">
      <path d="M 199.68155 169.559 
L 199.68155 27.0932 
" clip-path="url(#pc756ebd4d5)" style="fill: none; stroke-dasharray: 2.96,1.28; stroke-dashoffset: 0; stroke: #b0b0b0; stroke-opacity: 0.5; stroke-width: 0.8"/>
     </g>
     <g id="line2d_22">
      <g>
       <use xlink:href="#m0ef211e763" x="199.68155" y="169.559" style="stroke: #000000; stroke-width: 0.8"/>
      </g>
     </g>
     <g id="text_11">
      <!-- 2010 -->
      <g transform="translate(184.108407 195.254019) rotate(-45) scale(0.08 -0.08)">
       <use xlink:href="#DejaVuSerif-32"/>
       <use xlink:href="#DejaVuSerif-30" x="63.623047"/>
       <use xlink:href="#DejaVuSerif-31" x="127.246094"/>
       <use xlink:href="#DejaVuSerif-30" x="190.869141"/>
      </g>
     </g>
    </g>
    <g id="xtick_12">
     <g id="line2d_23">
      <path d="M 215.10765 169.559 
L 215.10765 27.0932 
" clip-path="url(#pc756ebd4d5)" style="fill: none; stroke-dasharray: 2.96,1.28; stroke-dashoffset: 0; stroke: #b0b0b0; stroke-opacity: 0.5; stroke-width: 0.8"/>
     </g>
     <g id="line2d_24">
      <g>
       <use xlink:href="#m0ef211e763" x="215.10765" y="169.559" style="stroke: #000000; stroke-width: 0.8"/>
      </g>
     </g>
     <g id="text_12">
      <!-- 2011 -->
      <g transform="translate(199.534507 195.254019) rotate(-45) scale(0.08 -0.08)">
       <use xlink:href="#DejaVuSerif-32"/>
       <use xlink:href="#DejaVuSerif-30" x="63.623047"/>
       <use xlink:href="#DejaVuSerif-31" x="127.246094"/>
       <use xlink:href="#DejaVuSerif-31" x="190.869141"/>
      </g>
     </g>
    </g>
    <g id="xtick_13">
     <g id="line2d_25">
      <path d="M 230.53375 169.559 
L 230.53375 27.0932 
" clip-path="url(#pc756ebd4d5)" style="fill: none; stroke-dasharray: 2.96,1.28; stroke-dashoffset: 0; stroke: #b0b0b0; stroke-opacity: 0.5; stroke-width: 0.8"/>
     </g>
     <g id="line2d_26">
      <g>
       <use xlink:href="#m0ef211e763" x="230.53375" y="169.559" style="stroke: #000000; stroke-width: 0.8"/>
      </g>
     </g>
     <g id="text_13">
      <!-- 2012 -->
      <g transform="translate(214.960607 195.254019) rotate(-45) scale(0.08 -0.08)">
       <use xlink:href="#DejaVuSerif-32"/>
       <use xlink:href="#DejaVuSerif-30" x="63.623047"/>
       <use xlink:href="#DejaVuSerif-31" x="127.246094"/>
       <use xlink:href="#DejaVuSerif-32" x="190.869141"/>
      </g>
     </g>
    </g>
    <g id="xtick_14">
     <g id="line2d_27">
      <path d="M 245.95985 169.559 
L 245.95985 27.0932 
" clip-path="url(#pc756ebd4d5)" style="fill: none; stroke-dasharray: 2.96,1.28; stroke-dashoffset: 0; stroke: #b0b0b0; stroke-opacity: 0.5; stroke-width: 0.8"/>
     </g>
     <g id="line2d_28">
      <g>
       <use xlink:href="#m0ef211e763" x="245.95985" y="169.559" style="stroke: #000000; stroke-width: 0.8"/>
      </g>
     </g>
     <g id="text_14">
      <!-- 2013 -->
      <g transform="translate(230.386707 195.254019) rotate(-45) scale(0.08 -0.08)">
       <use xlink:href="#DejaVuSerif-32"/>
       <use xlink:href="#DejaVuSerif-30" x="63.623047"/>
       <use xlink:href="#DejaVuSerif-31" x="127.246094"/>
       <use xlink:href="#DejaVuSerif-33" x="190.869141"/>
      </g>
     </g>
    </g>
    <g id="xtick_15">
     <g id="line2d_29">
      <path d="M 261.38595 169.559 
L 261.38595 27.0932 
" clip-path="url(#pc756ebd4d5)" style="fill: none; stroke-dasharray: 2.96,1.28; stroke-dashoffset: 0; stroke: #b0b0b0; stroke-opacity: 0.5; stroke-width: 0.8"/>
     </g>
     <g id="line2d_30">
      <g>
       <use xlink:href="#m0ef211e763" x="261.38595" y="169.559" style="stroke: #000000; stroke-width: 0.8"/>
      </g>
     </g>
     <g id="text_15">
      <!-- 2014 -->
      <g transform="translate(245.812807 195.254019) rotate(-45) scale(0.08 -0.08)">
       <use xlink:href="#DejaVuSerif-32"/>
       <use xlink:href="#DejaVuSerif-30" x="63.623047"/>
       <use xlink:href="#DejaVuSerif-31" x="127.246094"/>
       <use xlink:href="#DejaVuSerif-34" x="190.869141"/>
      </g>
     </g>
    </g>
    <g id="xtick_16">
     <g id="line2d_31">
      <path d="M 276.81205 169.559 
L 276.81205 27.0932 
" clip-path="url(#pc756ebd4d5)" style="fill: none; stroke-dasharray: 2.96,1.28; stroke-dashoffset: 0; stroke: #b0b0b0; stroke-opacity: 0.5; stroke-width: 0.8"/>
     </g>
     <g id="line2d_32">
      <g>
       <use xlink:href="#m0ef211e763" x="276.81205" y="169.559" style="stroke: #000000; stroke-width: 0.8"/>
      </g>
     </g>
     <g id="text_16">
      <!-- 2015 -->
      <g transform="translate(261.238907 195.254019) rotate(-45) scale(0.08 -0.08)">
       <use xlink:href="#DejaVuSerif-32"/>
       <use xlink:href="#DejaVuSerif-30" x="63.623047"/>
       <use xlink:href="#DejaVuSerif-31" x="127.246094"/>
       <use xlink:href="#DejaVuSerif-35" x="190.869141"/>
      </g>
     </g>
    </g>
    <g id="xtick_17">
     <g id="line2d_33">
      <path d="M 292.23815 169.559 
L 292.23815 27.0932 
" clip-path="url(#pc756ebd4d5)" style="fill: none; stroke-dasharray: 2.96,1.28; stroke-dashoffset: 0; stroke: #b0b0b0; stroke-opacity: 0.5; stroke-width: 0.8"/>
     </g>
     <g id="line2d_34">
      <g>
       <use xlink:href="#m0ef211e763" x="292.23815" y="169.559" style="stroke: #000000; stroke-width: 0.8"/>
      </g>
     </g>
     <g id="text_17">
      <!-- 2016 -->
      <g transform="translate(276.665007 195.254019) rotate(-45) scale(0.08 -0.08)">
       <use xlink:href="#DejaVuSerif-32"/>
       <use xlink:href="#DejaVuSerif-30" x="63.623047"/>
       <use xlink:href="#DejaVuSerif-31" x="127.246094"/>
       <use xlink:href="#DejaVuSerif-36" x="190.869141"/>
      </g>
     </g>
    </g>
    <g id="xtick_18">
     <g id="line2d_35">
      <path d="M 307.66425 169.559 
L 307.66425 27.0932 
" clip-path="url(#pc756ebd4d5)" style="fill: none; stroke-dasharray: 2.96,1.28; stroke-dashoffset: 0; stroke: #b0b0b0; stroke-opacity: 0.5; stroke-width: 0.8"/>
     </g>
     <g id="line2d_36">
      <g>
       <use xlink:href="#m0ef211e763" x="307.66425" y="169.559" style="stroke: #000000; stroke-width: 0.8"/>
      </g>
     </g>
     <g id="text_18">
      <!-- 2017 -->
      <g transform="translate(292.091107 195.254019) rotate(-45) scale(0.08 -0.08)">
       <use xlink:href="#DejaVuSerif-32"/>
       <use xlink:href="#DejaVuSerif-30" x="63.623047"/>
       <use xlink:href="#DejaVuSerif-31" x="127.246094"/>
       <use xlink:href="#DejaVuSerif-37" x="190.869141"/>
      </g>
     </g>
    </g>
    <g id="xtick_19">
     <g id="line2d_37">
      <path d="M 323.09035 169.559 
L 323.09035 27.0932 
" clip-path="url(#pc756ebd4d5)" style="fill: none; stroke-dasharray: 2.96,1.28; stroke-dashoffset: 0; stroke: #b0b0b0; stroke-opacity: 0.5; stroke-width: 0.8"/>
     </g>
     <g id="line2d_38">
      <g>
       <use xlink:href="#m0ef211e763" x="323.09035" y="169.559" style="stroke: #000000; stroke-width: 0.8"/>
      </g>
     </g>
     <g id="text_19">
      <!-- 2018 -->
      <g transform="translate(307.517207 195.254019) rotate(-45) scale(0.08 -0.08)">
       <use xlink:href="#DejaVuSerif-32"/>
       <use xlink:href="#DejaVuSerif-30" x="63.623047"/>
       <use xlink:href="#DejaVuSerif-31" x="127.246094"/>
       <use xlink:href="#DejaVuSerif-38" x="190.869141"/>
      </g>
     </g>
    </g>
    <g id="xtick_20">
     <g id="line2d_39">
      <path d="M 338.51645 169.559 
L 338.51645 27.0932 
" clip-path="url(#pc756ebd4d5)" style="fill: none; stroke-dasharray: 2.96,1.28; stroke-dashoffset: 0; stroke: #b0b0b0; stroke-opacity: 0.5; stroke-width: 0.8"/>
     </g>
     <g id="line2d_40">
      <g>
       <use xlink:href="#m0ef211e763" x="338.51645" y="169.559" style="stroke: #000000; stroke-width: 0.8"/>
      </g>
     </g>
     <g id="text_20">
      <!-- 2019 -->
      <g transform="translate(322.943307 195.254019) rotate(-45) scale(0.08 -0.08)">
       <use xlink:href="#DejaVuSerif-32"/>
       <use xlink:href="#DejaVuSerif-30" x="63.623047"/>
       <use xlink:href="#DejaVuSerif-31" x="127.246094"/>
       <use xlink:href="#DejaVuSerif-39" x="190.869141"/>
      </g>
     </g>
    </g>
    <g id="xtick_21">
     <g id="line2d_41">
      <path d="M 353.94255 169.559 
L 353.94255 27.0932 
" clip-path="url(#pc756ebd4d5)" style="fill: none; stroke-dasharray: 2.96,1.28; stroke-dashoffset: 0; stroke: #b0b0b0; stroke-opacity: 0.5; stroke-width: 0.8"/>
     </g>
     <g id="line2d_42">
      <g>
       <use xlink:href="#m0ef211e763" x="353.94255" y="169.559" style="stroke: #000000; stroke-width: 0.8"/>
      </g>
     </g>
     <g id="text_21">
      <!-- 2020 -->
      <g transform="translate(338.369407 195.254019) rotate(-45) scale(0.08 -0.08)">
       <use xlink:href="#DejaVuSerif-32"/>
       <use xlink:href="#DejaVuSerif-30" x="63.623047"/>
       <use xlink:href="#DejaVuSerif-32" x="127.246094"/>
       <use xlink:href="#DejaVuSerif-30" x="190.869141"/>
      </g>
     </g>
    </g>
    <g id="xtick_22">
     <g id="line2d_43">
      <path d="M 369.36865 169.559 
L 369.36865 27.0932 
" clip-path="url(#pc756ebd4d5)" style="fill: none; stroke-dasharray: 2.96,1.28; stroke-dashoffset: 0; stroke: #b0b0b0; stroke-opacity: 0.5; stroke-width: 0.8"/>
     </g>
     <g id="line2d_44">
      <g>
       <use xlink:href="#m0ef211e763" x="369.36865" y="169.559" style="stroke: #000000; stroke-width: 0.8"/>
      </g>
     </g>
     <g id="text_22">
      <!-- 2021 -->
      <g transform="translate(353.795507 195.254019) rotate(-45) scale(0.08 -0.08)">
       <use xlink:href="#DejaVuSerif-32"/>
       <use xlink:href="#DejaVuSerif-30" x="63.623047"/>
       <use xlink:href="#DejaVuSerif-32" x="127.246094"/>
       <use xlink:href="#DejaVuSerif-31" x="190.869141"/>
      </g>
     </g>
    </g>
    <g id="xtick_23">
     <g id="line2d_45">
      <path d="M 384.79475 169.559 
L 384.79475 27.0932 
" clip-path="url(#pc756ebd4d5)" style="fill: none; stroke-dasharray: 2.96,1.28; stroke-dashoffset: 0; stroke: #b0b0b0; stroke-opacity: 0.5; stroke-width: 0.8"/>
     </g>
     <g id="line2d_46">
      <g>
       <use xlink:href="#m0ef211e763" x="384.79475" y="169.559" style="stroke: #000000; stroke-width: 0.8"/>
      </g>
     </g>
     <g id="text_23">
      <!-- 2022 -->
      <g transform="translate(369.221607 195.254019) rotate(-45) scale(0.08 -0.08)">
       <use xlink:href="#DejaVuSerif-32"/>
       <use xlink:href="#DejaVuSerif-30" x="63.623047"/>
       <use xlink:href="#DejaVuSerif-32" x="127.246094"/>
       <use xlink:href="#DejaVuSerif-32" x="190.869141"/>
      </g>
     </g>
    </g>
    <g id="xtick_24">
     <g id="line2d_47">
      <path d="M 400.22085 169.559 
L 400.22085 27.0932 
" clip-path="url(#pc756ebd4d5)" style="fill: none; stroke-dasharray: 2.96,1.28; stroke-dashoffset: 0; stroke: #b0b0b0; stroke-opacity: 0.5; stroke-width: 0.8"/>
     </g>
     <g id="line2d_48">
      <g>
       <use xlink:href="#m0ef211e763" x="400.22085" y="169.559" style="stroke: #000000; stroke-width: 0.8"/>
      </g>
     </g>
     <g id="text_24">
      <!-- 2023 -->
      <g transform="translate(384.647707 195.254019) rotate(-45) scale(0.08 -0.08)">
       <use xlink:href="#DejaVuSerif-32"/>
       <use xlink:href="#DejaVuSerif-30" x="63.623047"/>
       <use xlink:href="#DejaVuSerif-32" x="127.246094"/>
       <use xlink:href="#DejaVuSerif-33" x="190.869141"/>
      </g>
     </g>
    </g>
    <g id="xtick_25">
     <g id="line2d_49">
      <path d="M 415.64695 169.559 
L 415.64695 27.0932 
" clip-path="url(#pc756ebd4d5)" style="fill: none; stroke-dasharray: 2.96,1.28; stroke-dashoffset: 0; stroke: #b0b0b0; stroke-opacity: 0.5; stroke-width: 0.8"/>
     </g>
     <g id="line2d_50">
      <g>
       <use xlink:href="#m0ef211e763" x="415.64695" y="169.559" style="stroke: #000000; stroke-width: 0.8"/>
      </g>
     </g>
     <g id="text_25">
      <!-- 2024 -->
      <g transform="translate(400.073807 195.254019) rotate(-45) scale(0.08 -0.08)">
       <use xlink:href="#DejaVuSerif-32"/>
       <use xlink:href="#DejaVuSerif-30" x="63.623047"/>
       <use xlink:href="#DejaVuSerif-32" x="127.246094"/>
       <use xlink:href="#DejaVuSerif-34" x="190.869141"/>
      </g>
     </g>
    </g>
    <g id="text_26">
     <!-- Série histórica -->
     <g transform="translate(200.85625 206.509218) scale(0.08 -0.08)">
      <defs>
       <path id="DejaVuSerif-53" d="M 594 225 
L 594 1288 
L 953 1284 
Q 969 753 1261 498 
Q 1553 244 2150 244 
Q 2706 244 2998 464 
Q 3291 684 3291 1106 
Q 3291 1444 3114 1625 
Q 2938 1806 2369 1978 
L 1753 2163 
Q 1084 2366 811 2669 
Q 538 2972 538 3500 
Q 538 4094 959 4422 
Q 1381 4750 2144 4750 
Q 2469 4750 2856 4679 
Q 3244 4609 3681 4475 
L 3681 3481 
L 3328 3481 
Q 3275 3975 2998 4195 
Q 2722 4416 2156 4416 
Q 1663 4416 1405 4214 
Q 1147 4013 1147 3628 
Q 1147 3294 1340 3103 
Q 1534 2913 2163 2725 
L 2741 2553 
Q 3375 2363 3645 2067 
Q 3916 1772 3916 1275 
Q 3916 597 3481 253 
Q 3047 -91 2188 -91 
Q 1803 -91 1404 -12 
Q 1006 66 594 225 
z
" transform="scale(0.015625)"/>
       <path id="DejaVuSerif-e9" d="M 3469 1600 
L 991 1600 
L 991 1575 
Q 991 903 1244 561 
Q 1497 219 1991 219 
Q 2369 219 2611 417 
Q 2853 616 2950 1006 
L 3413 1006 
Q 3275 459 2904 184 
Q 2534 -91 1931 -91 
Q 1203 -91 761 389 
Q 319 869 319 1663 
Q 319 2450 753 2931 
Q 1188 3413 1894 3413 
Q 2647 3413 3050 2948 
Q 3453 2484 3469 1600 
z
M 2791 1931 
Q 2772 2513 2545 2808 
Q 2319 3103 1894 3103 
Q 1497 3103 1269 2806 
Q 1041 2509 991 1931 
L 2791 1931 
z
M 2330 5119 
L 2952 5119 
L 1890 3944 
L 1524 3944 
L 2330 5119 
z
" transform="scale(0.015625)"/>
       <path id="DejaVuSerif-72" d="M 3059 3328 
L 3059 2497 
L 2728 2497 
Q 2713 2744 2591 2866 
Q 2469 2988 2234 2988 
Q 1809 2988 1582 2694 
Q 1356 2400 1356 1850 
L 1356 331 
L 2022 331 
L 2022 0 
L 263 0 
L 263 331 
L 781 331 
L 781 2994 
L 231 2994 
L 231 3322 
L 1356 3322 
L 1356 2731 
Q 1525 3078 1790 3245 
Q 2056 3413 2438 3413 
Q 2578 3413 2733 3391 
Q 2888 3369 3059 3328 
z
" transform="scale(0.015625)"/>
       <path id="DejaVuSerif-69" d="M 622 4353 
Q 622 4497 726 4603 
Q 831 4709 978 4709 
Q 1122 4709 1226 4603 
Q 1331 4497 1331 4353 
Q 1331 4206 1228 4103 
Q 1125 4000 978 4000 
Q 831 4000 726 4103 
Q 622 4206 622 4353 
z
M 1356 331 
L 1900 331 
L 1900 0 
L 231 0 
L 231 331 
L 781 331 
L 781 2988 
L 231 2988 
L 231 3322 
L 1356 3322 
L 1356 331 
z
" transform="scale(0.015625)"/>
       <path id="DejaVuSerif-65" d="M 3469 1600 
L 991 1600 
L 991 1575 
Q 991 903 1244 561 
Q 1497 219 1991 219 
Q 2369 219 2611 417 
Q 2853 616 2950 1006 
L 3413 1006 
Q 3275 459 2904 184 
Q 2534 -91 1931 -91 
Q 1203 -91 761 389 
Q 319 869 319 1663 
Q 319 2450 753 2931 
Q 1188 3413 1894 3413 
Q 2647 3413 3050 2948 
Q 3453 2484 3469 1600 
z
M 2791 1931 
Q 2772 2513 2545 2808 
Q 2319 3103 1894 3103 
Q 1497 3103 1269 2806 
Q 1041 2509 991 1931 
L 2791 1931 
z
" transform="scale(0.015625)"/>
       <path id="DejaVuSerif-20" transform="scale(0.015625)"/>
       <path id="DejaVuSerif-68" d="M 263 0 
L 263 331 
L 781 331 
L 781 4531 
L 231 4531 
L 231 4863 
L 1356 4863 
L 1356 2731 
Q 1516 3069 1770 3241 
Q 2025 3413 2363 3413 
Q 2913 3413 3172 3097 
Q 3431 2781 3431 2113 
L 3431 331 
L 3944 331 
L 3944 0 
L 2356 0 
L 2356 331 
L 2853 331 
L 2853 1931 
Q 2853 2541 2704 2764 
Q 2556 2988 2175 2988 
Q 1775 2988 1565 2697 
Q 1356 2406 1356 1850 
L 1356 331 
L 1856 331 
L 1856 0 
L 263 0 
z
" transform="scale(0.015625)"/>
       <path id="DejaVuSerif-73" d="M 359 184 
L 359 959 
L 691 959 
Q 703 588 923 403 
Q 1144 219 1575 219 
Q 1963 219 2166 364 
Q 2369 509 2369 788 
Q 2369 1006 2220 1140 
Q 2072 1275 1594 1428 
L 1178 1569 
Q 750 1706 558 1912 
Q 366 2119 366 2438 
Q 366 2894 700 3153 
Q 1034 3413 1625 3413 
Q 1888 3413 2178 3344 
Q 2469 3275 2778 3144 
L 2778 2419 
L 2447 2419 
Q 2434 2741 2221 2922 
Q 2009 3103 1644 3103 
Q 1281 3103 1095 2975 
Q 909 2847 909 2591 
Q 909 2381 1050 2254 
Q 1191 2128 1613 1997 
L 2069 1856 
Q 2541 1709 2748 1489 
Q 2956 1269 2956 922 
Q 2956 450 2595 179 
Q 2234 -91 1600 -91 
Q 1278 -91 972 -22 
Q 666 47 359 184 
z
" transform="scale(0.015625)"/>
       <path id="DejaVuSerif-74" d="M 691 2988 
L 184 2988 
L 184 3322 
L 691 3322 
L 691 4353 
L 1269 4353 
L 1269 3322 
L 2350 3322 
L 2350 2988 
L 1269 2988 
L 1269 878 
Q 1269 456 1350 337 
Q 1431 219 1650 219 
Q 1875 219 1978 351 
Q 2081 484 2088 781 
L 2522 781 
Q 2497 328 2275 118 
Q 2053 -91 1600 -91 
Q 1103 -91 897 129 
Q 691 350 691 878 
L 691 2988 
z
" transform="scale(0.015625)"/>
       <path id="DejaVuSerif-f3" d="M 1925 219 
Q 2388 219 2623 584 
Q 2859 950 2859 1663 
Q 2859 2375 2623 2739 
Q 2388 3103 1925 3103 
Q 1463 3103 1227 2739 
Q 991 2375 991 1663 
Q 991 950 1228 584 
Q 1466 219 1925 219 
z
M 1925 -91 
Q 1200 -91 759 389 
Q 319 869 319 1663 
Q 319 2456 758 2934 
Q 1197 3413 1925 3413 
Q 2653 3413 3092 2934 
Q 3531 2456 3531 1663 
Q 3531 869 3092 389 
Q 2653 -91 1925 -91 
z
M 2362 5119 
L 2984 5119 
L 1922 3944 
L 1556 3944 
L 2362 5119 
z
" transform="scale(0.015625)"/>
       <path id="DejaVuSerif-63" d="M 3291 997 
Q 3169 466 2822 187 
Q 2475 -91 1925 -91 
Q 1200 -91 759 389 
Q 319 869 319 1663 
Q 319 2459 759 2936 
Q 1200 3413 1925 3413 
Q 2241 3413 2553 3339 
Q 2866 3266 3181 3116 
L 3181 2266 
L 2847 2266 
Q 2781 2703 2561 2903 
Q 2341 3103 1931 3103 
Q 1466 3103 1228 2742 
Q 991 2381 991 1663 
Q 991 944 1227 581 
Q 1463 219 1931 219 
Q 2303 219 2525 412 
Q 2747 606 2828 997 
L 3291 997 
z
" transform="scale(0.015625)"/>
       <path id="DejaVuSerif-61" d="M 2547 1044 
L 2547 1747 
L 1806 1747 
Q 1378 1747 1168 1562 
Q 959 1378 959 997 
Q 959 650 1171 447 
Q 1384 244 1747 244 
Q 2106 244 2326 466 
Q 2547 688 2547 1044 
z
M 3122 2075 
L 3122 331 
L 3634 331 
L 3634 0 
L 2547 0 
L 2547 359 
Q 2356 128 2106 18 
Q 1856 -91 1522 -91 
Q 969 -91 644 203 
Q 319 497 319 997 
Q 319 1513 691 1797 
Q 1063 2081 1741 2081 
L 2547 2081 
L 2547 2309 
Q 2547 2688 2317 2895 
Q 2088 3103 1672 3103 
Q 1328 3103 1125 2947 
Q 922 2791 872 2484 
L 575 2484 
L 575 3156 
Q 875 3284 1158 3348 
Q 1441 3413 1709 3413 
Q 2400 3413 2761 3070 
Q 3122 2728 3122 2075 
z
" transform="scale(0.015625)"/>
      </defs>
      <use xlink:href="#DejaVuSerif-53"/>
      <use xlink:href="#DejaVuSerif-e9" x="68.505859"/>
      <use xlink:href="#DejaVuSerif-72" x="127.685547"/>
      <use xlink:href="#DejaVuSerif-69" x="175.488281"/>
      <use xlink:href="#DejaVuSerif-65" x="207.470703"/>
      <use xlink:href="#DejaVuSerif-20" x="266.650391"/>
      <use xlink:href="#DejaVuSerif-68" x="298.4375"/>
      <use xlink:href="#DejaVuSerif-69" x="362.841797"/>
      <use xlink:href="#DejaVuSerif-73" x="394.824219"/>
      <use xlink:href="#DejaVuSerif-74" x="446.142578"/>
      <use xlink:href="#DejaVuSerif-f3" x="486.328125"/>
      <use xlink:href="#DejaVuSerif-72" x="546.533203"/>
      <use xlink:href="#DejaVuSerif-69" x="594.335938"/>
      <use xlink:href="#DejaVuSerif-63" x="626.318359"/>
      <use xlink:href="#DejaVuSerif-61" x="682.324219"/>
     </g>
    </g>
   </g>
   <g id="matplotlib.axis_2">
    <g id="ytick_1">
     <g id="line2d_51">
      <path d="M 37.7075 169.559 
L 423.36 169.559 
" clip-path="url(#pc756ebd4d5)" style="fill: none; stroke-dasharray: 2.96,1.28; stroke-dashoffset: 0; stroke: #b0b0b0; stroke-opacity: 0.5; stroke-width: 0.8"/>
     </g>
     <g id="line2d_52">
      <defs>
       <path id="mfe97c116e7" d="M 0 0 
L -3.5 0 
" style="stroke: #000000; stroke-width: 0.8"/>
      </defs>
      <g>
       <use xlink:href="#mfe97c116e7" x="37.7075" y="169.559" style="stroke: #000000; stroke-width: 0.8"/>
      </g>
     </g>
     <g id="text_27">
      <!-- 0 -->
      <g transform="translate(25.6175 172.598375) scale(0.08 -0.08)">
       <use xlink:href="#DejaVuSerif-30"/>
      </g>
     </g>
    </g>
    <g id="ytick_2">
     <g id="line2d_53">
      <path d="M 37.7075 141.065792 
L 423.36 141.065792 
" clip-path="url(#pc756ebd4d5)" style="fill: none; stroke-dasharray: 2.96,1.28; stroke-dashoffset: 0; stroke: #b0b0b0; stroke-opacity: 0.5; stroke-width: 0.8"/>
     </g>
     <g id="line2d_54">
      <g>
       <use xlink:href="#mfe97c116e7" x="37.7075" y="141.065792" style="stroke: #000000; stroke-width: 0.8"/>
      </g>
     </g>
     <g id="text_28">
      <!-- 20 -->
      <g transform="translate(20.5275 144.105167) scale(0.08 -0.08)">
       <use xlink:href="#DejaVuSerif-32"/>
       <use xlink:href="#DejaVuSerif-30" x="63.623047"/>
      </g>
     </g>
    </g>
    <g id="ytick_3">
     <g id="line2d_55">
      <path d="M 37.7075 112.572585 
L 423.36 112.572585 
" clip-path="url(#pc756ebd4d5)" style="fill: none; stroke-dasharray: 2.96,1.28; stroke-dashoffset: 0; stroke: #b0b0b0; stroke-opacity: 0.5; stroke-width: 0.8"/>
     </g>
     <g id="line2d_56">
      <g>
       <use xlink:href="#mfe97c116e7" x="37.7075" y="112.572585" style="stroke: #000000; stroke-width: 0.8"/>
      </g>
     </g>
     <g id="text_29">
      <!-- 40 -->
      <g transform="translate(20.5275 115.61196) scale(0.08 -0.08)">
       <use xlink:href="#DejaVuSerif-34"/>
       <use xlink:href="#DejaVuSerif-30" x="63.623047"/>
      </g>
     </g>
    </g>
    <g id="ytick_4">
     <g id="line2d_57">
      <path d="M 37.7075 84.079377 
L 423.36 84.079377 
" clip-path="url(#pc756ebd4d5)" style="fill: none; stroke-dasharray: 2.96,1.28; stroke-dashoffset: 0; stroke: #b0b0b0; stroke-opacity: 0.5; stroke-width: 0.8"/>
     </g>
     <g id="line2d_58">
      <g>
       <use xlink:href="#mfe97c116e7" x="37.7075" y="84.079377" style="stroke: #000000; stroke-width: 0.8"/>
      </g>
     </g>
     <g id="text_30">
      <!-- 60 -->
      <g transform="translate(20.5275 87.118752) scale(0.08 -0.08)">
       <use xlink:href="#DejaVuSerif-36"/>
       <use xlink:href="#DejaVuSerif-30" x="63.623047"/>
      </g>
     </g>
    </g>
    <g id="ytick_5">
     <g id="line2d_59">
      <path d="M 37.7075 55.58617 
L 423.36 55.58617 
" clip-path="url(#pc756ebd4d5)" style="fill: none; stroke-dasharray: 2.96,1.28; stroke-dashoffset: 0; stroke: #b0b0b0; stroke-opacity: 0.5; stroke-width: 0.8"/>
     </g>
     <g id="line2d_60">
      <g>
       <use xlink:href="#mfe97c116e7" x="37.7075" y="55.58617" style="stroke: #000000; stroke-width: 0.8"/>
      </g>
     </g>
     <g id="text_31">
      <!-- 80 -->
      <g transform="translate(20.5275 58.625545) scale(0.08 -0.08)">
       <use xlink:href="#DejaVuSerif-38"/>
       <use xlink:href="#DejaVuSerif-30" x="63.623047"/>
      </g>
     </g>
    </g>
    <g id="text_32">
     <!-- Geração [%] -->
     <g transform="translate(14.86375 123.41235) rotate(-90) scale(0.08 -0.08)">
      <defs>
       <path id="DejaVuSerif-47" d="M 4097 3272 
Q 3988 3856 3641 4136 
Q 3294 4416 2675 4416 
Q 1869 4416 1472 3897 
Q 1075 3378 1075 2328 
Q 1075 1300 1484 772 
Q 1894 244 2688 244 
Q 3041 244 3362 331 
Q 3684 419 3975 594 
L 3975 1797 
L 3097 1797 
L 3097 2131 
L 4609 2131 
L 4609 391 
Q 4194 150 3714 29 
Q 3234 -91 2688 -91 
Q 1631 -91 995 570 
Q 359 1231 359 2328 
Q 359 3434 996 4092 
Q 1634 4750 2713 4750 
Q 3113 4750 3539 4658 
Q 3966 4566 4447 4378 
L 4447 3272 
L 4097 3272 
z
" transform="scale(0.015625)"/>
       <path id="DejaVuSerif-e7" d="M 3291 997 
Q 3169 466 2822 187 
Q 2475 -91 1925 -91 
Q 1200 -91 759 389 
Q 319 869 319 1663 
Q 319 2459 759 2936 
Q 1200 3413 1925 3413 
Q 2241 3413 2553 3339 
Q 2866 3266 3181 3116 
L 3181 2266 
L 2847 2266 
Q 2781 2703 2561 2903 
Q 2341 3103 1931 3103 
Q 1466 3103 1228 2742 
Q 991 2381 991 1663 
Q 991 944 1227 581 
Q 1463 219 1931 219 
Q 2303 219 2525 412 
Q 2747 606 2828 997 
L 3291 997 
z
M 2118 0 
Q 2318 -200 2416 -375 
Q 2515 -550 2515 -703 
Q 2515 -956 2318 -1095 
Q 2121 -1234 1771 -1234 
Q 1640 -1234 1502 -1215 
Q 1365 -1197 1221 -1159 
L 1221 -750 
Q 1350 -803 1473 -829 
Q 1596 -856 1706 -856 
Q 1884 -856 1987 -773 
Q 2090 -691 2090 -550 
Q 2090 -463 2021 -325 
Q 1953 -188 1815 0 
L 2118 0 
z
" transform="scale(0.015625)"/>
       <path id="DejaVuSerif-e3" d="M 2547 1044 
L 2547 1747 
L 1806 1747 
Q 1378 1747 1168 1562 
Q 959 1378 959 997 
Q 959 650 1171 447 
Q 1384 244 1747 244 
Q 2106 244 2326 466 
Q 2547 688 2547 1044 
z
M 3122 2075 
L 3122 331 
L 3634 331 
L 3634 0 
L 2547 0 
L 2547 359 
Q 2356 128 2106 18 
Q 1856 -91 1522 -91 
Q 969 -91 644 203 
Q 319 497 319 997 
Q 319 1513 691 1797 
Q 1063 2081 1741 2081 
L 2547 2081 
L 2547 2309 
Q 2547 2688 2317 2895 
Q 2088 3103 1672 3103 
Q 1328 3103 1125 2947 
Q 922 2791 872 2484 
L 575 2484 
L 575 3156 
Q 875 3284 1158 3348 
Q 1441 3413 1709 3413 
Q 2400 3413 2761 3070 
Q 3122 2728 3122 2075 
z
M 1764 4281 
L 1585 4453 
Q 1504 4528 1452 4551 
Q 1401 4575 1342 4575 
Q 1210 4575 1135 4451 
Q 1060 4328 1045 4091 
L 745 4091 
Q 751 4513 910 4742 
Q 1070 4972 1354 4972 
Q 1473 4972 1573 4928 
Q 1673 4884 1789 4781 
L 1967 4609 
Q 2039 4538 2092 4513 
Q 2145 4488 2210 4488 
Q 2345 4488 2420 4613 
Q 2495 4738 2507 4972 
L 2807 4972 
Q 2801 4550 2641 4320 
Q 2482 4091 2198 4091 
Q 2079 4091 1979 4134 
Q 1879 4178 1764 4281 
z
" transform="scale(0.015625)"/>
       <path id="DejaVuSerif-6f" d="M 1925 219 
Q 2388 219 2623 584 
Q 2859 950 2859 1663 
Q 2859 2375 2623 2739 
Q 2388 3103 1925 3103 
Q 1463 3103 1227 2739 
Q 991 2375 991 1663 
Q 991 950 1228 584 
Q 1466 219 1925 219 
z
M 1925 -91 
Q 1200 -91 759 389 
Q 319 869 319 1663 
Q 319 2456 758 2934 
Q 1197 3413 1925 3413 
Q 2653 3413 3092 2934 
Q 3531 2456 3531 1663 
Q 3531 869 3092 389 
Q 2653 -91 1925 -91 
z
" transform="scale(0.015625)"/>
       <path id="DejaVuSerif-5b" d="M 550 4863 
L 2003 4863 
L 2003 4531 
L 1147 4531 
L 1147 -513 
L 2003 -513 
L 2003 -844 
L 550 -844 
L 550 4863 
z
" transform="scale(0.015625)"/>
       <path id="DejaVuSerif-25" d="M 1434 4459 
Q 1159 4459 1004 4200 
Q 850 3941 850 3475 
Q 850 3016 1008 2753 
Q 1166 2491 1434 2491 
Q 1700 2491 1854 2752 
Q 2009 3013 2009 3475 
Q 2009 3938 1854 4198 
Q 1700 4459 1434 4459 
z
M 4653 2169 
Q 4381 2169 4226 1906 
Q 4072 1644 4072 1178 
Q 4072 719 4228 458 
Q 4384 197 4653 197 
Q 4922 197 5075 458 
Q 5228 719 5228 1178 
Q 5228 1641 5073 1905 
Q 4919 2169 4653 2169 
z
M 4653 2450 
Q 5147 2450 5437 2106 
Q 5728 1763 5728 1178 
Q 5728 594 5436 251 
Q 5144 -91 4653 -91 
Q 4153 -91 3862 251 
Q 3572 594 3572 1178 
Q 3572 1766 3864 2108 
Q 4156 2450 4653 2450 
z
M 4263 4750 
L 4738 4750 
L 1819 -91 
L 1344 -91 
L 4263 4750 
z
M 1428 4750 
Q 1922 4750 2215 4408 
Q 2509 4066 2509 3481 
Q 2509 2891 2217 2550 
Q 1925 2209 1428 2209 
Q 931 2209 642 2551 
Q 353 2894 353 3481 
Q 353 4063 643 4406 
Q 934 4750 1428 4750 
z
" transform="scale(0.015625)"/>
       <path id="DejaVuSerif-5d" d="M 1947 4863 
L 1947 -844 
L 494 -844 
L 494 -513 
L 1350 -513 
L 1350 4531 
L 494 4531 
L 494 4863 
L 1947 4863 
z
" transform="scale(0.015625)"/>
      </defs>
      <use xlink:href="#DejaVuSerif-47"/>
      <use xlink:href="#DejaVuSerif-65" x="79.882812"/>
      <use xlink:href="#DejaVuSerif-72" x="139.0625"/>
      <use xlink:href="#DejaVuSerif-61" x="186.865234"/>
      <use xlink:href="#DejaVuSerif-e7" x="246.484375"/>
      <use xlink:href="#DejaVuSerif-e3" x="302.490234"/>
      <use xlink:href="#DejaVuSerif-6f" x="362.109375"/>
      <use xlink:href="#DejaVuSerif-20" x="422.314453"/>
      <use xlink:href="#DejaVuSerif-5b" x="454.101562"/>
      <use xlink:href="#DejaVuSerif-25" x="493.115234"/>
      <use xlink:href="#DejaVuSerif-5d" x="588.134766"/>
     </g>
    </g>
   </g>
   <g id="patch_3">
    <path d="M 41.564025 169.559 
L 49.277075 169.559 
L 49.277075 35.491612 
L 41.564025 35.491612 
z
" clip-path="url(#pc756ebd4d5)" style="fill: #3867ff"/>
   </g>
   <g id="patch_4">
    <path d="M 56.990125 169.559 
L 64.703175 169.559 
L 64.703175 41.875367 
L 56.990125 41.875367 
z
" clip-path="url(#pc756ebd4d5)" style="fill: #3867ff"/>
   </g>
   <g id="patch_5">
    <path d="M 72.416225 169.559 
L 80.129275 169.559 
L 80.129275 39.941608 
L 72.416225 39.941608 
z
" clip-path="url(#pc756ebd4d5)" style="fill: #3867ff"/>
   </g>
   <g id="patch_6">
    <path d="M 87.842325 169.559 
L 95.555375 169.559 
L 95.555375 38.270153 
L 87.842325 38.270153 
z
" clip-path="url(#pc756ebd4d5)" style="fill: #3867ff"/>
   </g>
   <g id="patch_7">
    <path d="M 103.268425 169.559 
L 110.981475 169.559 
L 110.981475 39.359553 
L 103.268425 39.359553 
z
" clip-path="url(#pc756ebd4d5)" style="fill: #3867ff"/>
   </g>
   <g id="patch_8">
    <path d="M 118.694525 169.559 
L 126.407575 169.559 
L 126.407575 37.854967 
L 118.694525 37.854967 
z
" clip-path="url(#pc756ebd4d5)" style="fill: #3867ff"/>
   </g>
   <g id="patch_9">
    <path d="M 134.120625 169.559 
L 141.833675 169.559 
L 141.833675 38.767517 
L 134.120625 38.767517 
z
" clip-path="url(#pc756ebd4d5)" style="fill: #3867ff"/>
   </g>
   <g id="patch_10">
    <path d="M 149.546725 169.559 
L 157.259775 169.559 
L 157.259775 37.376646 
L 149.546725 37.376646 
z
" clip-path="url(#pc756ebd4d5)" style="fill: #3867ff"/>
   </g>
   <g id="patch_11">
    <path d="M 164.972825 169.559 
L 172.685875 169.559 
L 172.685875 43.313726 
L 164.972825 43.313726 
z
" clip-path="url(#pc756ebd4d5)" style="fill: #3867ff"/>
   </g>
   <g id="patch_12">
    <path d="M 180.398925 169.559 
L 188.111975 169.559 
L 188.111975 36.676446 
L 180.398925 36.676446 
z
" clip-path="url(#pc756ebd4d5)" style="fill: #3867ff"/>
   </g>
   <g id="patch_13">
    <path d="M 195.825025 169.559 
L 203.538075 169.559 
L 203.538075 42.800627 
L 195.825025 42.800627 
z
" clip-path="url(#pc756ebd4d5)" style="fill: #3867ff"/>
   </g>
   <g id="patch_14">
    <path d="M 211.251125 169.559 
L 218.964175 169.559 
L 218.964175 39.573573 
L 211.251125 39.573573 
z
" clip-path="url(#pc756ebd4d5)" style="fill: #3867ff"/>
   </g>
   <g id="patch_15">
    <path d="M 226.677225 169.559 
L 234.390275 169.559 
L 234.390275 46.567596 
L 226.677225 46.567596 
z
" clip-path="url(#pc756ebd4d5)" style="fill: #3867ff"/>
   </g>
   <g id="patch_16">
    <path d="M 242.103325 169.559 
L 249.816375 169.559 
L 249.816375 54.760167 
L 242.103325 54.760167 
z
" clip-path="url(#pc756ebd4d5)" style="fill: #3867ff"/>
   </g>
   <g id="patch_17">
    <path d="M 257.529425 169.559 
L 265.242475 169.559 
L 265.242475 65.862935 
L 257.529425 65.862935 
z
" clip-path="url(#pc756ebd4d5)" style="fill: #3867ff"/>
   </g>
   <g id="patch_18">
    <path d="M 272.955525 169.559 
L 280.668575 169.559 
L 280.668575 68.320036 
L 272.955525 68.320036 
z
" clip-path="url(#pc756ebd4d5)" style="fill: #3867ff"/>
   </g>
   <g id="patch_19">
    <path d="M 288.381625 169.559 
L 296.094675 169.559 
L 296.094675 61.572505 
L 288.381625 61.572505 
z
" clip-path="url(#pc756ebd4d5)" style="fill: #3867ff"/>
   </g>
   <g id="patch_20">
    <path d="M 303.807725 169.559 
L 311.520775 169.559 
L 311.520775 67.115886 
L 303.807725 67.115886 
z
" clip-path="url(#pc756ebd4d5)" style="fill: #3867ff"/>
   </g>
   <g id="patch_21">
    <path d="M 319.233825 169.559 
L 326.946875 169.559 
L 326.946875 64.336952 
L 319.233825 64.336952 
z
" clip-path="url(#pc756ebd4d5)" style="fill: #3867ff"/>
   </g>
   <g id="patch_22">
    <path d="M 334.659925 169.559 
L 342.372975 169.559 
L 342.372975 66.257222 
L 334.659925 66.257222 
z
" clip-path="url(#pc756ebd4d5)" style="fill: #3867ff"/>
   </g>
   <g id="patch_23">
    <path d="M 350.086025 169.559 
L 357.799075 169.559 
L 357.799075 65.534423 
L 350.086025 65.534423 
z
" clip-path="url(#pc756ebd4d5)" style="fill: #3867ff"/>
   </g>
   <g id="patch_24">
    <path d="M 365.512125 169.559 
L 373.225175 169.559 
L 373.225175 80.387079 
L 365.512125 80.387079 
z
" clip-path="url(#pc756ebd4d5)" style="fill: #3867ff"/>
   </g>
   <g id="patch_25">
    <path d="M 380.938225 169.559 
L 388.651275 169.559 
L 388.651275 67.098224 
L 380.938225 67.098224 
z
" clip-path="url(#pc756ebd4d5)" style="fill: #3867ff"/>
   </g>
   <g id="patch_26">
    <path d="M 396.364325 169.559 
L 404.077375 169.559 
L 404.077375 73.299317 
L 396.364325 73.299317 
z
" clip-path="url(#pc756ebd4d5)" style="fill: #3867ff"/>
   </g>
   <g id="patch_27">
    <path d="M 411.790425 169.559 
L 419.503475 169.559 
L 419.503475 81.739897 
L 411.790425 81.739897 
z
" clip-path="url(#pc756ebd4d5)" style="fill: #3867ff"/>
   </g>
   <g id="patch_28">
    <path d="M 41.564025 35.491612 
L 49.277075 35.491612 
L 49.277075 27.144922 
L 41.564025 27.144922 
z
" clip-path="url(#pc756ebd4d5)" style="fill: #ff6038"/>
   </g>
   <g id="patch_29">
    <path d="M 56.990125 41.875367 
L 64.703175 41.875367 
L 64.703175 27.119163 
L 56.990125 27.119163 
z
" clip-path="url(#pc756ebd4d5)" style="fill: #ff6038"/>
   </g>
   <g id="patch_30">
    <path d="M 72.416225 39.941608 
L 80.129275 39.941608 
L 80.129275 27.103255 
L 72.416225 27.103255 
z
" clip-path="url(#pc756ebd4d5)" style="fill: #ff6038"/>
   </g>
   <g id="patch_31">
    <path d="M 87.842325 38.270153 
L 95.555375 38.270153 
L 95.555375 27.0932 
L 87.842325 27.0932 
z
" clip-path="url(#pc756ebd4d5)" style="fill: #ff6038"/>
   </g>
   <g id="patch_32">
    <path d="M 103.268425 39.359553 
L 110.981475 39.359553 
L 110.981475 27.092991 
L 103.268425 27.092991 
z
" clip-path="url(#pc756ebd4d5)" style="fill: #ff6038"/>
   </g>
   <g id="patch_33">
    <path d="M 118.694525 37.854967 
L 126.407575 37.854967 
L 126.407575 27.093009 
L 118.694525 27.093009 
z
" clip-path="url(#pc756ebd4d5)" style="fill: #ff6038"/>
   </g>
   <g id="patch_34">
    <path d="M 134.120625 38.767517 
L 141.833675 38.767517 
L 141.833675 27.182524 
L 134.120625 27.182524 
z
" clip-path="url(#pc756ebd4d5)" style="fill: #ff6038"/>
   </g>
   <g id="patch_35">
    <path d="M 149.546725 37.376646 
L 157.259775 37.376646 
L 157.259775 27.763434 
L 149.546725 27.763434 
z
" clip-path="url(#pc756ebd4d5)" style="fill: #ff6038"/>
   </g>
   <g id="patch_36">
    <path d="M 164.972825 43.313726 
L 172.685875 43.313726 
L 172.685875 28.329718 
L 164.972825 28.329718 
z
" clip-path="url(#pc756ebd4d5)" style="fill: #ff6038"/>
   </g>
   <g id="patch_37">
    <path d="M 180.398925 36.676446 
L 188.111975 36.676446 
L 188.111975 27.98251 
L 180.398925 27.98251 
z
" clip-path="url(#pc756ebd4d5)" style="fill: #ff6038"/>
   </g>
   <g id="patch_38">
    <path d="M 195.825025 42.800627 
L 203.538075 42.800627 
L 203.538075 28.408 
L 195.825025 28.408 
z
" clip-path="url(#pc756ebd4d5)" style="fill: #ff6038"/>
   </g>
   <g id="patch_39">
    <path d="M 211.251125 39.573573 
L 218.964175 39.573573 
L 218.964175 28.762654 
L 211.251125 28.762654 
z
" clip-path="url(#pc756ebd4d5)" style="fill: #ff6038"/>
   </g>
   <g id="patch_40">
    <path d="M 226.677225 46.567596 
L 234.390275 46.567596 
L 234.390275 29.380937 
L 226.677225 29.380937 
z
" clip-path="url(#pc756ebd4d5)" style="fill: #ff6038"/>
   </g>
   <g id="patch_41">
    <path d="M 242.103325 54.760167 
L 249.816375 54.760167 
L 249.816375 30.399235 
L 242.103325 30.399235 
z
" clip-path="url(#pc756ebd4d5)" style="fill: #ff6038"/>
   </g>
   <g id="patch_42">
    <path d="M 257.529425 65.862935 
L 265.242475 65.862935 
L 265.242475 32.697705 
L 257.529425 32.697705 
z
" clip-path="url(#pc756ebd4d5)" style="fill: #ff6038"/>
   </g>
   <g id="patch_43">
    <path d="M 272.955525 68.320036 
L 280.668575 68.320036 
L 280.668575 35.847802 
L 272.955525 35.847802 
z
" clip-path="url(#pc756ebd4d5)" style="fill: #ff6038"/>
   </g>
   <g id="patch_44">
    <path d="M 288.381625 61.572505 
L 296.094675 61.572505 
L 296.094675 39.489993 
L 288.381625 39.489993 
z
" clip-path="url(#pc756ebd4d5)" style="fill: #ff6038"/>
   </g>
   <g id="patch_45">
    <path d="M 303.807725 67.115886 
L 311.520775 67.115886 
L 311.520775 42.620203 
L 303.807725 42.620203 
z
" clip-path="url(#pc756ebd4d5)" style="fill: #ff6038"/>
   </g>
   <g id="patch_46">
    <path d="M 319.233825 64.336952 
L 326.946875 64.336952 
L 326.946875 44.504746 
L 319.233825 44.504746 
z
" clip-path="url(#pc756ebd4d5)" style="fill: #ff6038"/>
   </g>
   <g id="patch_47">
    <path d="M 334.659925 66.257222 
L 342.372975 66.257222 
L 342.372975 46.411897 
L 334.659925 46.411897 
z
" clip-path="url(#pc756ebd4d5)" style="fill: #ff6038"/>
   </g>
   <g id="patch_48">
    <path d="M 350.086025 65.534423 
L 357.799075 65.534423 
L 357.799075 47.660464 
L 350.086025 47.660464 
z
" clip-path="url(#pc756ebd4d5)" style="fill: #ff6038"/>
   </g>
   <g id="patch_49">
    <path d="M 365.512125 80.387079 
L 373.225175 80.387079 
L 373.225175 50.349752 
L 365.512125 50.349752 
z
" clip-path="url(#pc756ebd4d5)" style="fill: #ff6038"/>
   </g>
   <g id="patch_50">
    <path d="M 380.938225 67.098224 
L 388.651275 67.098224 
L 388.651275 52.627261 
L 380.938225 52.627261 
z
" clip-path="url(#pc756ebd4d5)" style="fill: #ff6038"/>
   </g>
   <g id="patch_51">
    <path d="M 396.364325 73.299317 
L 404.077375 73.299317 
L 404.077375 60.675235 
L 396.364325 60.675235 
z
" clip-path="url(#pc756ebd4d5)" style="fill: #ff6038"/>
   </g>
   <g id="patch_52">
    <path d="M 411.790425 81.739897 
L 419.503475 81.739897 
L 419.503475 67.058754 
L 411.790425 67.058754 
z
" clip-path="url(#pc756ebd4d5)" style="fill: #ff6038"/>
   </g>
   <g id="patch_53">
    <path d="M 41.564025 27.144922 
L 49.277075 27.144922 
L 49.277075 27.092962 
L 41.564025 27.092962 
z
" clip-path="url(#pc756ebd4d5)" style="fill: #3e944f"/>
   </g>
   <g id="patch_54">
    <path d="M 56.990125 27.119163 
L 64.703175 27.119163 
L 64.703175 27.092962 
L 56.990125 27.092962 
z
" clip-path="url(#pc756ebd4d5)" style="fill: #3e944f"/>
   </g>
   <g id="patch_55">
    <path d="M 72.416225 27.103255 
L 80.129275 27.103255 
L 80.129275 27.092962 
L 72.416225 27.092962 
z
" clip-path="url(#pc756ebd4d5)" style="fill: #3e944f"/>
   </g>
   <g id="patch_56">
    <path d="M 87.842325 27.0932 
L 95.555375 27.0932 
L 95.555375 27.092962 
L 87.842325 27.092962 
z
" clip-path="url(#pc756ebd4d5)" style="fill: #3e944f"/>
   </g>
   <g id="patch_57">
    <path d="M 103.268425 27.092991 
L 110.981475 27.092991 
L 110.981475 27.092962 
L 103.268425 27.092962 
z
" clip-path="url(#pc756ebd4d5)" style="fill: #3e944f"/>
   </g>
   <g id="patch_58">
    <path d="M 118.694525 27.093009 
L 126.407575 27.093009 
L 126.407575 27.092962 
L 118.694525 27.092962 
z
" clip-path="url(#pc756ebd4d5)" style="fill: #3e944f"/>
   </g>
   <g id="patch_59">
    <path d="M 134.120625 27.182524 
L 141.833675 27.182524 
L 141.833675 27.092962 
L 134.120625 27.092962 
z
" clip-path="url(#pc756ebd4d5)" style="fill: #3e944f"/>
   </g>
   <g id="patch_60">
    <path d="M 149.546725 27.763434 
L 157.259775 27.763434 
L 157.259775 27.092962 
L 149.546725 27.092962 
z
" clip-path="url(#pc756ebd4d5)" style="fill: #3e944f"/>
   </g>
   <g id="patch_61">
    <path d="M 164.972825 28.329718 
L 172.685875 28.329718 
L 172.685875 27.092962 
L 164.972825 27.092962 
z
" clip-path="url(#pc756ebd4d5)" style="fill: #3e944f"/>
   </g>
   <g id="patch_62">
    <path d="M 180.398925 27.98251 
L 188.111975 27.98251 
L 188.111975 27.092962 
L 180.398925 27.092962 
z
" clip-path="url(#pc756ebd4d5)" style="fill: #3e944f"/>
   </g>
   <g id="patch_63">
    <path d="M 195.825025 28.408 
L 203.538075 28.408 
L 203.538075 27.092962 
L 195.825025 27.092962 
z
" clip-path="url(#pc756ebd4d5)" style="fill: #3e944f"/>
   </g>
   <g id="patch_64">
    <path d="M 211.251125 28.762654 
L 218.964175 28.762654 
L 218.964175 27.092962 
L 211.251125 27.092962 
z
" clip-path="url(#pc756ebd4d5)" style="fill: #3e944f"/>
   </g>
   <g id="patch_65">
    <path d="M 226.677225 29.380937 
L 234.390275 29.380937 
L 234.390275 27.092962 
L 226.677225 27.092962 
z
" clip-path="url(#pc756ebd4d5)" style="fill: #3e944f"/>
   </g>
   <g id="patch_66">
    <path d="M 242.103325 30.399235 
L 249.816375 30.399235 
L 249.816375 27.092962 
L 242.103325 27.092962 
z
" clip-path="url(#pc756ebd4d5)" style="fill: #3e944f"/>
   </g>
   <g id="patch_67">
    <path d="M 257.529425 32.697705 
L 265.242475 32.697705 
L 265.242475 27.092962 
L 257.529425 27.092962 
z
" clip-path="url(#pc756ebd4d5)" style="fill: #3e944f"/>
   </g>
   <g id="patch_68">
    <path d="M 272.955525 35.847802 
L 280.668575 35.847802 
L 280.668575 27.092962 
L 272.955525 27.092962 
z
" clip-path="url(#pc756ebd4d5)" style="fill: #3e944f"/>
   </g>
   <g id="patch_69">
    <path d="M 288.381625 39.489993 
L 296.094675 39.489993 
L 296.094675 27.092962 
L 288.381625 27.092962 
z
" clip-path="url(#pc756ebd4d5)" style="fill: #3e944f"/>
   </g>
   <g id="patch_70">
    <path d="M 303.807725 42.620203 
L 311.520775 42.620203 
L 311.520775 27.092962 
L 303.807725 27.092962 
z
" clip-path="url(#pc756ebd4d5)" style="fill: #3e944f"/>
   </g>
   <g id="patch_71">
    <path d="M 319.233825 44.504746 
L 326.946875 44.504746 
L 326.946875 27.092962 
L 319.233825 27.092962 
z
" clip-path="url(#pc756ebd4d5)" style="fill: #3e944f"/>
   </g>
   <g id="patch_72">
    <path d="M 334.659925 46.411897 
L 342.372975 46.411897 
L 342.372975 27.092962 
L 334.659925 27.092962 
z
" clip-path="url(#pc756ebd4d5)" style="fill: #3e944f"/>
   </g>
   <g id="patch_73">
    <path d="M 350.086025 47.660464 
L 357.799075 47.660464 
L 357.799075 27.092962 
L 350.086025 27.092962 
z
" clip-path="url(#pc756ebd4d5)" style="fill: #3e944f"/>
   </g>
   <g id="patch_74">
    <path d="M 365.512125 50.349752 
L 373.225175 50.349752 
L 373.225175 27.092962 
L 365.512125 27.092962 
z
" clip-path="url(#pc756ebd4d5)" style="fill: #3e944f"/>
   </g>
   <g id="patch_75">
    <path d="M 380.938225 52.627261 
L 388.651275 52.627261 
L 388.651275 27.092962 
L 380.938225 27.092962 
z
" clip-path="url(#pc756ebd4d5)" style="fill: #3e944f"/>
   </g>
   <g id="patch_76">
    <path d="M 396.364325 60.675235 
L 404.077375 60.675235 
L 404.077375 27.092962 
L 396.364325 27.092962 
z
" clip-path="url(#pc756ebd4d5)" style="fill: #3e944f"/>
   </g>
   <g id="patch_77">
    <path d="M 411.790425 67.058754 
L 419.503475 67.058754 
L 419.503475 27.092962 
L 411.790425 27.092962 
z
" clip-path="url(#pc756ebd4d5)" style="fill: #3e944f"/>
   </g>
   <g id="patch_78">
    <path d="M 37.7075 169.559 
L 37.7075 27.0932 
" style="fill: none; stroke: #000000; stroke-width: 0.8; stroke-linejoin: miter; stroke-linecap: square"/>
   </g>
   <g id="patch_79">
    <path d="M 37.7075 169.559 
L 423.36 169.559 
" style="fill: none; stroke: #000000; stroke-width: 0.8; stroke-linejoin: miter; stroke-linecap: square"/>
   </g>
   <g id="legend_1">
    <g id="patch_80">
     <path d="M 129.40125 21.139067 
L 145.40125 21.139067 
L 145.40125 15.539067 
L 129.40125 15.539067 
z
" style="fill: #3867ff"/>
    </g>
    <g id="text_33">
     <!-- Hidráulica -->
     <g transform="translate(151.80125 21.139067) scale(0.08 -0.08)">
      <defs>
       <path id="DejaVuSerif-48" d="M 353 0 
L 353 331 
L 947 331 
L 947 4331 
L 353 4331 
L 353 4666 
L 2175 4666 
L 2175 4331 
L 1581 4331 
L 1581 2719 
L 4000 2719 
L 4000 4331 
L 3406 4331 
L 3406 4666 
L 5228 4666 
L 5228 4331 
L 4634 4331 
L 4634 331 
L 5228 331 
L 5228 0 
L 3406 0 
L 3406 331 
L 4000 331 
L 4000 2338 
L 1581 2338 
L 1581 331 
L 2175 331 
L 2175 0 
L 353 0 
z
" transform="scale(0.015625)"/>
       <path id="DejaVuSerif-64" d="M 3359 331 
L 3909 331 
L 3909 0 
L 2784 0 
L 2784 519 
Q 2616 206 2355 57 
Q 2094 -91 1709 -91 
Q 1097 -91 708 395 
Q 319 881 319 1663 
Q 319 2444 706 2928 
Q 1094 3413 1709 3413 
Q 2094 3413 2355 3264 
Q 2616 3116 2784 2803 
L 2784 4531 
L 2241 4531 
L 2241 4863 
L 3359 4863 
L 3359 331 
z
M 2784 1497 
L 2784 1825 
Q 2784 2422 2554 2737 
Q 2325 3053 1888 3053 
Q 1444 3053 1217 2703 
Q 991 2353 991 1663 
Q 991 975 1217 622 
Q 1444 269 1888 269 
Q 2325 269 2554 583 
Q 2784 897 2784 1497 
z
" transform="scale(0.015625)"/>
       <path id="DejaVuSerif-e1" d="M 2547 1044 
L 2547 1747 
L 1806 1747 
Q 1378 1747 1168 1562 
Q 959 1378 959 997 
Q 959 650 1171 447 
Q 1384 244 1747 244 
Q 2106 244 2326 466 
Q 2547 688 2547 1044 
z
M 3122 2075 
L 3122 331 
L 3634 331 
L 3634 0 
L 2547 0 
L 2547 359 
Q 2356 128 2106 18 
Q 1856 -91 1522 -91 
Q 969 -91 644 203 
Q 319 497 319 997 
Q 319 1513 691 1797 
Q 1063 2081 1741 2081 
L 2547 2081 
L 2547 2309 
Q 2547 2688 2317 2895 
Q 2088 3103 1672 3103 
Q 1328 3103 1125 2947 
Q 922 2791 872 2484 
L 575 2484 
L 575 3156 
Q 875 3284 1158 3348 
Q 1441 3413 1709 3413 
Q 2400 3413 2761 3070 
Q 3122 2728 3122 2075 
z
M 2210 5119 
L 2832 5119 
L 1770 3944 
L 1404 3944 
L 2210 5119 
z
" transform="scale(0.015625)"/>
       <path id="DejaVuSerif-75" d="M 2266 3322 
L 3341 3322 
L 3341 331 
L 3884 331 
L 3884 0 
L 2766 0 
L 2766 588 
Q 2606 256 2353 82 
Q 2100 -91 1766 -91 
Q 1213 -91 952 223 
Q 691 538 691 1209 
L 691 2988 
L 172 2988 
L 172 3322 
L 1269 3322 
L 1269 1388 
Q 1269 781 1417 556 
Q 1566 331 1947 331 
Q 2347 331 2556 625 
Q 2766 919 2766 1478 
L 2766 2988 
L 2266 2988 
L 2266 3322 
z
" transform="scale(0.015625)"/>
       <path id="DejaVuSerif-6c" d="M 1313 331 
L 1856 331 
L 1856 0 
L 184 0 
L 184 331 
L 738 331 
L 738 4531 
L 184 4531 
L 184 4863 
L 1313 4863 
L 1313 331 
z
" transform="scale(0.015625)"/>
      </defs>
      <use xlink:href="#DejaVuSerif-48"/>
      <use xlink:href="#DejaVuSerif-69" x="87.207031"/>
      <use xlink:href="#DejaVuSerif-64" x="119.189453"/>
      <use xlink:href="#DejaVuSerif-72" x="183.203125"/>
      <use xlink:href="#DejaVuSerif-e1" x="231.005859"/>
      <use xlink:href="#DejaVuSerif-75" x="290.625"/>
      <use xlink:href="#DejaVuSerif-6c" x="355.029297"/>
      <use xlink:href="#DejaVuSerif-69" x="387.011719"/>
      <use xlink:href="#DejaVuSerif-63" x="418.994141"/>
      <use xlink:href="#DejaVuSerif-61" x="475"/>
     </g>
    </g>
    <g id="patch_81">
     <path d="M 210.57125 21.139067 
L 226.57125 21.139067 
L 226.57125 15.539067 
L 210.57125 15.539067 
z
" style="fill: #ff6038"/>
    </g>
    <g id="text_34">
     <!-- Térmica -->
     <g transform="translate(232.97125 21.139067) scale(0.08 -0.08)">
      <defs>
       <path id="DejaVuSerif-54" d="M 1222 0 
L 1222 331 
L 1819 331 
L 1819 4294 
L 447 4294 
L 447 3566 
L 63 3566 
L 63 4666 
L 4206 4666 
L 4206 3566 
L 3822 3566 
L 3822 4294 
L 2450 4294 
L 2450 331 
L 3047 331 
L 3047 0 
L 1222 0 
z
" transform="scale(0.015625)"/>
       <path id="DejaVuSerif-6d" d="M 3316 2675 
Q 3481 3041 3739 3227 
Q 3997 3413 4341 3413 
Q 4863 3413 5119 3089 
Q 5375 2766 5375 2113 
L 5375 331 
L 5894 331 
L 5894 0 
L 4300 0 
L 4300 331 
L 4800 331 
L 4800 2047 
Q 4800 2556 4650 2772 
Q 4500 2988 4153 2988 
Q 3769 2988 3567 2697 
Q 3366 2406 3366 1850 
L 3366 331 
L 3866 331 
L 3866 0 
L 2291 0 
L 2291 331 
L 2791 331 
L 2791 2069 
Q 2791 2566 2641 2777 
Q 2491 2988 2144 2988 
Q 1759 2988 1557 2697 
Q 1356 2406 1356 1850 
L 1356 331 
L 1856 331 
L 1856 0 
L 263 0 
L 263 331 
L 781 331 
L 781 2994 
L 231 2994 
L 231 3322 
L 1356 3322 
L 1356 2731 
Q 1516 3063 1762 3238 
Q 2009 3413 2322 3413 
Q 2709 3413 2968 3220 
Q 3228 3028 3316 2675 
z
" transform="scale(0.015625)"/>
      </defs>
      <use xlink:href="#DejaVuSerif-54"/>
      <use xlink:href="#DejaVuSerif-e9" x="58.949219"/>
      <use xlink:href="#DejaVuSerif-72" x="118.128906"/>
      <use xlink:href="#DejaVuSerif-6d" x="165.931641"/>
      <use xlink:href="#DejaVuSerif-69" x="260.755859"/>
      <use xlink:href="#DejaVuSerif-63" x="292.738281"/>
      <use xlink:href="#DejaVuSerif-61" x="348.744141"/>
     </g>
    </g>
    <g id="patch_82">
     <path d="M 281.64125 21.139067 
L 297.64125 21.139067 
L 297.64125 15.539067 
L 281.64125 15.539067 
z
" style="fill: #3e944f"/>
    </g>
    <g id="text_35">
     <!-- Outras -->
     <g transform="translate(304.04125 21.139067) scale(0.08 -0.08)">
      <defs>
       <path id="DejaVuSerif-4f" d="M 2625 244 
Q 3391 244 3781 770 
Q 4172 1297 4172 2328 
Q 4172 3363 3781 3889 
Q 3391 4416 2625 4416 
Q 1856 4416 1465 3889 
Q 1075 3363 1075 2328 
Q 1075 1297 1465 770 
Q 1856 244 2625 244 
z
M 2625 -91 
Q 2150 -91 1751 65 
Q 1353 222 1050 525 
Q 700 875 529 1319 
Q 359 1763 359 2328 
Q 359 2894 529 3339 
Q 700 3784 1050 4134 
Q 1356 4441 1750 4595 
Q 2144 4750 2625 4750 
Q 3641 4750 4266 4084 
Q 4891 3419 4891 2328 
Q 4891 1769 4719 1320 
Q 4547 872 4197 525 
Q 3891 219 3497 64 
Q 3103 -91 2625 -91 
z
" transform="scale(0.015625)"/>
      </defs>
      <use xlink:href="#DejaVuSerif-4f"/>
      <use xlink:href="#DejaVuSerif-75" x="81.982422"/>
      <use xlink:href="#DejaVuSerif-74" x="146.386719"/>
      <use xlink:href="#DejaVuSerif-72" x="186.572266"/>
      <use xlink:href="#DejaVuSerif-61" x="234.375"/>
      <use xlink:href="#DejaVuSerif-73" x="293.994141"/>
     </g>
    </g>
   </g>
  </g>
 </g>
 <defs>
  <clipPath id="pc756ebd4d5">
   <rect x="37.7075" y="27.0932" width="385.6525" height="142.4658"/>
  </clipPath>
 </defs>
</svg>
